<svg xmlns="http://www.w3.org/2000/svg" xmlns:xlink="http://www.w3.org/1999/xlink" viewBox="0 0 578 183">
  <defs>
    <radialGradient id="rg" cx="111.9" cy="128.3" r="371" gradientUnits="userSpaceOnUse">
      <stop offset="0" stop-color="#a27057"/>
      <stop offset=".1" stop-color="#bf9261"/>
      <stop offset=".3" stop-color="#d6a569"/>
      <stop offset=".5" stop-color="#ffc677"/>
      <stop offset=".8" stop-color="#aa815d"/>
      <stop offset="1" stop-color="#daab6b"/>
    </radialGradient>
    <linearGradient id="gr1" x1="-600" y1="0" x2="-200" y2="200" gradientUnits="userSpaceOnUse">
    <stop offset="0" stop-color="#fff0"/>
    <stop offset=".5" stop-color="#fff"/>
    <stop offset="1" stop-color="#fff0"/>
    <animate attributeName="x1" values="-400;5400" dur="4s" begin="3s" repeatCount="indefinite"/>
    <animate attributeName="x2" values="-200;6000" dur="4s" begin="3s" repeatCount="indefinite"/>
    </linearGradient>
    <path id="g" 
        d="M157.4,161.4l.5,2.7c-4.5,1.9-9.5,3.9-13.1,5.4l-1.3-3c2.2-.7,5.4-1.9,8.8-3.1v-12.1h-7.7v-3h7.7v-7.2h3.1v21.1l2.1-.8h0ZM168,165.8c1.3,0,1.5-1.5,1.7-7.4.7.6,2.1,1.2,2.9,1.4-.3,6.6-1,8.9-4.3,8.9h-4.1c-3.1,0-4-1.1-4-4.9v-22.8h3.1v7.2h8.6v2.9h-8.6v12.7c0,1.6.2,1.9,1.3,1.9h3.4ZM198.9,152.1c0,.7,0,1.4,0,2.1,1,6.3,2.7,10.1,6.2,13.3-.7.5-1.5,1.5-1.9,2.3-2.6-2.6-4.2-5.3-5.4-8.9-.9,3.1-2.4,6.3-5.1,9-.3-.6-1-1.3-1.5-1.9-.8.1-1.9.1-2.9.1h-6.5c-3.7,0-5-1.3-5-5.3v-18.3h-1v-2.5h15.6v2.5h-11.9v18.5c0,1.9.5,2.6,2.2,2.6h6.8c1,0,2.3-.1,3-.3,0,.4.1.9.2,1.4,4.2-4.7,4.6-10.7,4.6-14.7v-2.3h2.7v2.3h0ZM180.4,155.5h4.9v8.1h-4.9v-8.1ZM189.6,153.6h-8.1v-7.3h8.1v7.3ZM181.9,161.8h1.8v-4.4h-1.8v4.4ZM187.2,148.2h-3.6v3.5h3.6v-3.5ZM191.2,163.6h-5v-8h5v8ZM189.6,157.5h-1.8v4.3h1.8v-4.3ZM195.5,148c-.7,2.4-1.7,4.6-2.8,6.2-.5-.4-1.7-1.2-2.4-1.6,2.1-2.9,3.4-7.5,4-12.2l2.7.4c-.2,1.5-.5,3-.8,4.4h7.2c0,0,1.9.5,1.9.5-.6,3-1.5,6.4-2.4,8.6l-2.2-.8c.5-1.4,1-3.6,1.5-5.6h-6.7ZM233.4,142c-.1,12.1-.1,24.6,1.6,24.6s.5-2.1.6-4.7c.5.8,1.2,1.8,1.7,2.3-.3,4-.8,5.7-2.6,5.7-4.2,0-4.2-11.4-4.2-25.1h-16.5v7.8c0,5.2-.5,12.6-4.1,17.4-.5-.5-1.7-1.3-2.4-1.6,3.4-4.5,3.7-10.9,3.7-15.7v-10.5h22.3,0ZM227.6,161c1.5,2.1,3,5.1,3.5,7l-2.5.9c-.2-.7-.4-1.5-.8-2.3-5,.4-10.2.8-13.9,1l-.2-2.7c1.9,0,4.4-.3,7-.4v-3.9h-5.3v-9h5.3v-2.6h-5.6v-2.4h14v2.4h-5.8v2.6h5.4v9h-5.4v3.8l3.4-.2c-.4-.8-1-1.7-1.4-2.4l2.3-.7h0ZM220.8,158.3v-4.3h-2.9v4.3h2.9ZM223.4,154v4.3h3v-4.3h-3ZM266.9,144.6c-1.1,3.3-2.9,6.1-5,8.4,2.1,1.7,4.6,3.1,7.6,3.9-.6.6-1.4,1.8-1.9,2.5-.4-.1-.7-.3-1.1-.4v10.7h-2.9v-1.1h-7.9v1.2h-2.8v-10.6c-.7.3-1.4.6-2.1.9-.3-.7-1.1-1.8-1.7-2.4h.2c-.5-1-1.3-2.2-2.1-3.4v15.5h-2.8v-13.8c-1.1,3.2-2.4,6.1-3.8,8.1-.3-.8-1-2-1.4-2.7,2-2.7,4-7.4,5-11.5h-4.2v-2.8h4.5v-6.7h2.8v6.7h3.9v1.7c2.3-2.2,4.3-5.2,5.5-8.4l2.9.8c-.4.9-.8,1.8-1.2,2.7h6.6c0-.1,1.9.7,1.9.7h0ZM250.1,157.5c2.8-1,5.5-2.5,7.9-4.5-1.2-1.2-2.1-2.6-2.9-3.9-.9,1.1-1.9,2.1-2.8,3-.5-.5-1.6-1.5-2.3-2l.2-.2h-2.8v1.1c.9.9,3.4,4,4,4.7l-1.3,1.8h0ZM264.7,158.1c-1.8-.9-3.4-2-4.7-3.2-1.4,1.2-2.9,2.3-4.6,3.2h9.3ZM263.8,166v-5.3h-7.9v5.3h7.9ZM257,146.4l-.3.4c.8,1.4,1.9,2.9,3.2,4.3,1.3-1.4,2.4-3,3.3-4.7h-6.2ZM287.1,171.1h-1.4v-32h1.4v32ZM319.9,140.6c0,1.2,0,2.9-.2,4.8.5,4,2.4,16.8,13.6,21.7-.9.7-1.8,1.7-2.2,2.5-7.5-3.6-11-10.6-12.7-16.3-1.6,6-5,12.5-12.2,16.5-.5-.8-1.5-1.7-2.5-2.4,13.1-6.8,12.7-21.7,12.8-26.8h3.4,0ZM359.8,148.9c-1.7,4.8-4.1,8.7-7.1,11.9,3.4,2.8,7.6,4.9,12.5,6.1-.7.6-1.5,1.9-2,2.8-5.1-1.4-9.3-3.6-12.8-6.7-3.5,3-7.9,5.2-13.1,6.8-.4-.8-1.2-2.1-1.9-2.8,5.1-1.4,9.3-3.4,12.7-6.1-3.1-3.3-5.5-7.3-7.3-12h-4.9v-2.9h13.9c-.4-1.3-1.3-3.3-2.1-4.8l3.1-.9c.9,1.5,2,3.5,2.4,4.9l-2.8.9h14.4v2.9h-5,0ZM344.1,148.9c1.5,3.8,3.7,7.1,6.4,9.9,2.6-2.7,4.6-6,6-9.9h-12.4ZM394.4,157.1c.2,0,.4,0,.5-.1.1,0,.2-.3.3-.6,0-.4,0-1.2.1-2.3.5.4,1.1.7,1.7.9,0,1.1-.2,2.5-.3,2.9-.2.4-.4.8-.8,1-.3.2-.9.3-1.3.3h-1.3c-.6,0-1.2-.2-1.7-.6-.4-.4-.6-.9-.6-2.7v-5.5h-2.2c0,.9-.2,1.9-.5,2.9,1,.6,1.9,1.2,2.5,1.8l-1.4,1.9c-.4-.5-1.1-1-1.9-1.5-.8,1.5-2.1,3-4.2,4.3-.3-.3-.7-.7-1.1-1.1-4.9.4-9.9.7-13.5.9l-.2-1.8c1.6,0,3.5-.2,5.8-.3v-1.3h-4.4v-1.6h4.4v-1.6h2.3c-.1-.4-.2-.8-.2-1.3v-.5h-2.4c-.5,1.8-1.8,2.8-4.8,3.4-.2-.4-.7-1.1-1.1-1.4,2.3-.4,3.4-.9,3.9-1.9h-3.3v-1.6h5.6v-1.1h-4.1v-1.6h4.1v-.9h2.5v.9h4.1v1.6h-4.1v1.1h5.6v1.6h-4v.5c0,.5,0,.7.5.7h1.5c.4,0,1,0,1.4-.2,0,.5.1,1,.2,1.5-.4.1-1,.1-1.5.1h-2.1c-.8,0-1.2-.2-1.5-.5v1.2h4.5v1.6h-4.5v1.2l5.5-.3v.6c1.5-1.1,2.5-2.3,3.1-3.6-.9-.5-1.9-1-2.9-1.4l1.3-1.6c.7.3,1.5.7,2.3,1.1.2-.6.3-1.2.3-1.8h-3.4v-2.2h3.4v-2.1h2.3v2.1h4.6v7.7c0,.6,0,.9.1,1,0,.1.2.2.3.2h.6,0ZM368.2,163.2h28.4v1.8h-7.4c2.3,1.1,4.9,2.7,6.3,3.8l-2.1,1.4c-.5-.5-1.2-1-2-1.6-17.3.8-19.2.8-20.5,1.1-.2-.4-.6-1.5-.9-2.1.6,0,1.3-.3,2.2-.7.6-.3,2.1-1,3.7-2h-7.6v-1.8h0ZM375.6,144.6h-7.2v-2.1h7.2v-2h2.9v2h3.5v2.1h-3.5v1.2h-2.9v-1.2ZM392.8,160.1v1.8h-20.6v-1.8h20.6ZM388.5,166.9c-.7-.4-1.5-.8-2.2-1.1l1.4-.8h-7.8c-1.3.9-2.7,1.7-4,2.4l12.7-.5h0ZM386.1,144.6h-3.2v-2.1h3.2v-2h2.9v2h7.4v2.1h-7.4v1.2h-2.9v-1.2ZM415.8,166.6h13.2v2.5h-29.1v-2.5h13v-2.4h-9.5v-2.4h9.5v-1.9h3v1.9h10.3v2.4h-10.3v2.4ZM400.2,157.8c1.7,0,3.9-.3,6.2-.4v-2.1h-5.1v-2.1h5.1v-1.6h-5.3v-9.9h13.2v9.9h-5.4v1.6h5.2v2.1h-5.2v1.9c1.9-.2,3.9-.3,5.9-.5v2.1c-5.2.5-10.7.9-14.5,1.2l-.2-2.3ZM403.5,145.6h2.9v-1.9h-2.9v1.9ZM406.4,149.5v-2h-2.9v2h2.9ZM411.9,143.6h-3v1.9h3v-1.9ZM411.9,147.5h-3v2h3v-2ZM420.1,151.6h-5.1v-2.4h6.5c-1.3-1-3.1-2.1-4.6-2.9l1.7-1.5c.8.4,1.6.8,2.5,1.3.8-.6,1.7-1.3,2.4-2.1h-7.8v-2.3h10.1l.6-.2,1.8,1.4c-1.4,1.6-3.2,3.2-5,4.5.5.4,1,.8,1.4,1.1l-.7.6h3.2c0,0,1.9.3,1.9.3-.6,2-1.4,4.2-2.1,5.6l-2.3-.5c.4-.8.8-1.9,1.1-3h-2.8v5.9c0,1.3-.3,2-1.2,2.4-1,.4-2.4.4-4.4.4-.1-.7-.5-1.7-.8-2.4,1.4,0,2.7,0,3.1,0,.4,0,.5-.1.5-.4v-5.9h0ZM128,155.6H3.1V23.2h141v-2H1.1v136.4h126.9v-2ZM566,21.2h-141v2h139v133.8h-121.1v2h123.1V21.2Z"
    />
  </defs>
  <path fill="#fff" 
    d="M184.9,14.5c1,5,3,9.1,6,12.4,1.9,2.1,4.6,4.1,7.3,5.4,1.5.7,2.6,1.1,4.6,1.6v.5c-2.2,1.1-3.2,2.3-3.9,4.3-.2.6-.4.8-.6.8-.4,0-1.2-.5-2.5-1.5-4.1-3.1-6.9-7.3-9.1-12.9-1-2.8-1.6-5.4-2.2-9.2-.7,7-2.8,12.1-6.7,16.2-2.4,2.6-5.4,4.7-8.5,6.2-1.4.7-2.5,1.1-4.8,2l-.2-.5c5.9-4,8.9-6.9,11.4-11.1,2.3-3.9,3.6-8.6,4.1-14.1h-10.6c-1.4,0-2.4,0-3.7.3l-.2-1.6c1.3.2,2.5.4,3.9.4h10.6c.2-2.1.2-4,.2-6.8s0-2.7-.2-4.5c1.4.1,2.5.2,3.2.3,2.8.2,3.6.5,3.6,1s-.4.7-1.7,1.2c-.1,4.5-.2,6.1-.4,8.7h8.9l3-4.1c2.2,1.8,2.9,2.3,5,4.2.2.2.3.4.3.5,0,.2-.2.3-.5.3h-16.6ZM213.4,24v-1.5c0-1.3,0-1.8-.2-2.9,2.2,0,4.2.2,4.9.5.4,0,.5.2.5.5,0,.3-.3.5-1.4.8v2.7h2.4c1-1.1,1.2-1.5,2.3-2.6,1.4,1.2,1.8,1.6,3.2,3,.2.1.2.2.2.3s-.1.2-.3.2h-7.9v1.8c2.5.6,4.1,1.2,5.1,1.9.5.4,1,1.3,1,1.9s-.2,1.1-.4,1.5c-.3.8-1.1,1.5-1.7,1.5s-.7-.3-.9-1.1c-.8-2.4-2.1-4.5-3.1-5.2,0,1.4,0,5.4.2,12.2v.2c0,.3-.1.5-.4.7-.2.1-1.8.2-3,.2s-.7-.2-.7-.7c.2-6.5.2-6.8.2-7.7s0-.8,0-1.4c-2,2.4-3.8,3.9-7.6,6.3l-.2-.3c2.3-2.5,3.5-4.3,5-7.1,1-1.8,1-1.9,2.1-4.8h-3c-1.2,0-1.9,0-3.4.2l-.3-1.3c.9.1,2.6.2,3.6.2h3.7ZM219.7,17.9c1.1-1.2,1.4-1.6,2.5-2.8,1.1,1,2.3,2,3.5,3.1,0,0,.2.2.2.2,0,.2-.2.3-.4.3h-16c-.9,0-1.6,0-3.2.2l-.2-1.3c1.4.2,2.5.3,3.5.3h6.5c1.1-2.4,1.8-5.3,2.1-8.8,4.2,1.4,5.3,1.9,5.3,2.4s-.4.6-1.6.7c-1.7,2.4-3,4.1-4.7,5.8h2.6ZM219.4,8.1c1-1.3,1.3-1.6,2.3-2.7,1.5,1.2,1.9,1.6,3.4,3,.2.1.2.2.2.3,0,.2-.2.3-.3.3h-14.7c-.8,0-1.5,0-3.2.2l-.2-1.3c1.2.2,2.7.3,3.4.3h3v-1.1c0-1.9,0-2.8-.3-4.5,4.9.3,5.2.4,5.8.8,0,0,.2.2.2.3,0,.3-.4.6-1.6,1v3.6h2ZM209.5,9.3c1.8,1.2,2.5,1.7,3.4,2.6.9.8,1.4,1.8,1.4,2.6,0,1.4-1.4,3.1-2.6,3.1s-1-.4-1-1.6c-.2-2.7-.5-4-1.5-6.4l.3-.2h0ZM230.4,17.2c0,7.9-1.2,12.7-4,16.7-1.8,2.6-3.7,4.4-6.7,6.4l-.4-.4c3.3-3.5,4.7-6,5.8-10.2.9-3.5,1.2-7.4,1.2-14.4s0-7.9-.2-10.4c2.1,1.1,2.7,1.4,4.6,2.5,3.8-2,6.1-3.6,7.4-5.1,3.9,2.5,5.1,3.4,5.1,3.8s-.4.4-.8.4-.7,0-1.6-.2c-3.1,1-5.7,1.6-10.3,2.3,0,1,0,3.6,0,7.7h6.5c1.3-1.5,1.7-1.9,2.9-3.3,1.8,1.5,2.3,2,4.1,3.7.1.1.2.2.2.2,0,.2-.2.2-.3.2h-4.8v8.7c0,4.9,0,6.9.2,13.4,0,.6-.2.8-.7.9-.6,0-2,.2-2.8.2s-1-.1-1-.8c0-3.1.1-7.7.2-13.7v-8.7h-4.3ZM276.9,21.1c.4-.8.5-1.3,1.2-3.4h-25.2c0,.5,0,.7,0,1.1,0,3.2-1.5,5.7-3.3,5.7s-1.9-1-1.9-2.6.2-1.3,1.2-1.9c2-1.1,2.9-2.3,3.1-4.3-1.2.4-1.8.6-3.4.8v-.4c5.5-2.9,7.2-5.8,7.2-12.5s0-1,0-1.7c4.9.3,5.4.5,5.4,1s-.3.5-1.5,1c-.2,2.1-.3,2.7-.5,3.7.2-.2.3-.2.5-.4,1.7-1.5,2.6-2.5,3.3-3.7,2.8,1.9,3.2,2.3,3.2,2.6s-.2.5-.6.5-.5,0-1.1-.2c-1.7.8-3.4,1.4-5.5,2-.2.8-.2,1-.4,1.5,4.4,1,5.9,1.9,5.9,3.4s-.9,2.5-1.8,2.5-.7-.2-1.1-1c-1-1.9-1.8-2.9-3.3-4.2-1,2.1-2.8,3.6-5.6,4.8.1.7.1.8.2,1.3h25.3c.2-.3.5-.5.8-.8-.3-.3-.4-.4-.7-.8-1.4-2-3-3.7-4.6-4.6-.8,1.3-1.6,2.2-2.8,3-1.4.9-2.7,1.5-5.8,2.5v-.4c2.4-1.6,3.9-3.1,4.9-5,.9-1.7,1.4-4.5,1.4-7.3s0-.7-.2-1.3c4.4.3,5.4.5,5.4,1s-.4.6-1.4,1c-.2,1.8-.2,2.5-.4,3.5,2-1.5,3.6-2.9,4.6-4.2,2.8,2.1,3.6,2.8,3.6,3.3s-.2.5-.6.5-.7,0-1.4-.2c-2,.8-4,1.3-6.5,1.8-.2.6-.3.8-.5,1.3,5.1.9,7.3,2,7.3,3.7s0,.8-.4,1.3c1.3,1,1.6,1.3,3,2.6.3.3.4.5.4.8,0,.5-.5.6-2.3.7-1.9,1.3-2.6,1.6-5.2,3.1h0c-.2,0-.3.1-.6.2,0,.9,0,1.6,0,2.1s0,.7,0,2.9c0,.3,0,.5-.2.6-.4.2-1.4.4-2.4.4s-1.4-.1-1.5-.7v-.8h-4.8c-1.2,1.6-1.4,1.9-3.4,4h10.9c1-1.1,1.3-1.4,2.2-2.3,1.4.9,1.8,1.2,3.1,2.2.4.3.6.6.6.8,0,.3-.1.4-1.3,1.2,0,1.1,0,1.8,0,2.3,0,1,0,1.2,0,4.4,0,.4,0,.6-.4.8-.4.2-1.6.5-2.5.5s-1.4-.2-1.4-.8v-1.4h-19v1.3c0,.2,0,.3-.2.4-.4.2-1.4.4-2.5.4s-1.7-.2-1.7-.8h0c.1-2.3.1-2.7.1-6s0-4.4-.1-5.4c2.1,1,2.7,1.3,4.7,2.4h5.4c.5-2.1.5-2.1.7-4h-3.5v.7c0,.3-.1.5-.4.6-.4.2-1.7.3-2.5.3s-1.3-.2-1.3-.8h0c0-1.8.1-3,.1-3.7,0-3.9,0-4.5-.2-5.6,2,.8,2.5,1.1,4.4,2.1h12.6c.9-1,1.2-1.3,2.1-2.1,1.2.9,1.6,1.3,2.8,2.3l.2.2h0ZM253.1,4.3c.2,1.1.2,1.5.2,2.2,0,2.8-1.4,5.2-3,5.2s-1.7-1-1.7-2.2.3-1.3,1.6-2.1c1.2-.6,1.8-1.4,2.3-3h.5ZM256.2,32v5.9h19v-5.9h-19ZM259.1,21.6v4.5h13v-4.5h-13ZM268.4,4.2c.3,1.3.4,2,.4,2.9,0,2.2-1.4,4.4-2.9,4.4s-1.5-1-1.5-2.1.2-1,1-1.5c1.6-.9,2.2-1.8,2.4-3.6h.4ZM304.9,12.4v-4.9c0-1.8-.1-4.1-.3-5.4,6.1.6,6.6.7,6.6,1.3s-.5.7-1.8,1.2v7.7h5.7c1.3-1.7,1.7-2.3,3.1-3.9,2.2,1.8,2.8,2.3,4.9,4.2.2.2.2.3.2.4,0,.2-.2.2-.5.2h-13.4v10.6h5c1.3-1.6,1.7-2.2,3.1-3.9,2.1,1.7,2.7,2.3,4.7,4.1.2.2.2.3.2.4,0,.2-.2.2-.4.2h-12.5v12.6h7.2c1.4-1.8,1.8-2.3,3.3-4,2.2,1.8,2.9,2.4,5,4.3.1.2.2.2.2.3,0,.2-.2.2-.4.2h-32.4c-1.1,0-2.4,0-3.2.2l-.2-1.5c1.1.2,2.2.4,3.4.4h12.6v-12.6h-8.2c-1,0-1.8,0-2.7.2l-.2-1.4c.9.2,1.8.3,2.8.3h8.2v-10.6h-7c-3.3,5.4-4.6,7-8.5,10.5l-.4-.4c2.5-3.9,3.8-6.9,5.3-11.3,1.1-3.4,1.5-5.3,1.6-7.8,5.8,1.6,6.6,1.9,6.6,2.4s-.6.7-1.9.9c-1,2.4-1.4,3.3-2.2,4.8h6.6ZM329.5,12c2.3.6,3.9,1.2,5.2,1.9,1.5.8,2.1,1.6,2.1,2.8,0,1.7-1.4,3.5-2.7,3.5s-1-.3-1.5-1.9c-.8-2.4-1.7-3.9-3.4-5.9l.2-.3h0ZM329.6,27.5c1.4.3,2.1.5,2.6.5.7,0,.9-.2,2.2-2.7,1.7-3.2,3.4-6.9,6.9-14.8l.5.2-5.2,17.1c-.4,1.5-.5,1.8-.5,2.2s.2.9.5,1.9c.5,1.4.8,2.8.8,3.9,0,2.4-1.8,4.5-3.9,4.5s-1.5-.5-1.5-1.3,0-.9.2-1.6c.4-2.8.6-3.9.6-4.9,0-2.8-.4-3.4-3.2-4.6v-.5c.1,0,.1,0,.1,0ZM332,2.9c5.9,1.3,7.7,2.5,7.7,4.7s-1.4,3.3-2.6,3.3-.8-.3-1.6-1.9c-.8-2-1.8-3.4-3.7-5.6l.2-.4ZM349.9,8.4c-3.5.4-5.2.5-9,.6v-.5c4.3-.9,7.6-1.9,11.1-3.2,3.6-1.4,5.4-2.3,7-3.6,4,2.9,5,3.6,5,4.1s-.2.5-.6.5-1.1-.1-1.8-.3c-3.3,1.1-4.6,1.4-7.3,1.9v8.3h5c1-1.3,2-2.6,3-3.7,2,1.6,2.6,2.2,4.5,4,.2.2.2.3.2.4s-.2.2-.5.2h-12.2v8.4h4c1-1.2,1.4-1.6,2.4-2.7,1.5,1.1,2,1.4,3.3,2.5.4.3.5.5.5.8,0,.4-.3.7-1.5,1.4v2.4c0,2.7,0,3.5.2,9.6,0,.4,0,.7-.4.8-.4.3-1.4.4-2.8.4s-1.4,0-1.4-.8v-2.1h-12.5v1.9c0,.4,0,.6-.2.8-.3.2-1.4.4-3,.4s-1.4-.2-1.4-.8v-.2c.2-4.6.2-5.6.2-8,0-4.4,0-6.8-.2-8.9,2.2,1.1,2.9,1.4,5,2.6h3.5v-8.4h-7.1c-.9,0-1.3,0-2.1.2l-.3-1.3c.8.2,1.5.2,2.4.2h7.1v-7.7h0ZM346.1,36.8h12.5v-10.5h-12.5v10.5ZM376.5,39.5c0,.2,0,.4-.2.5-.2.2-1.4.4-2.5.4h-.4c-.9,0-1.3-.2-1.3-.9v-.2c.2-9,.2-12.1.2-16,0-9,0-17.6-.2-21.4,2.1,1,2.8,1.3,5,2.7h23.9c1-1.2,1.4-1.5,2.3-2.5,1.5,1.1,1.9,1.4,3.3,2.6.3.2.4.4.4.7,0,.5-.3.7-1.4,1.4v14.1s0,4.5,0,4.5c0,2.5,0,7.2.1,14,0,.3,0,.5-.2.6-.3.2-1.5.4-3,.4s-1.1-.2-1.1-.8v-1.6h-24.9v1.6h0ZM376.5,37h24.9V5.5h-24.9v31.5h0ZM390.6,14.3c.7,1.6,1.2,2.3,2.4,3.7h2.3c.7-1,1.4-1.9,2.1-2.7,1.4,1.2,1.8,1.6,3.3,2.9.1.1.2.3.2.4,0,.2-.2.2-.4.2h-6.7c2.1,1.8,4,2.8,7.2,3.8v.3c-1,.6-1.4,1.1-2,2.8-.1.3-.2.5-.4.5-.4,0-1.7-1-3.2-2.3-.3.2-.4.2-.7.4-.2,2.6-.3,3.3-.6,4-.4,1-1.1,1.5-2.5,1.8-.4,0-1,.1-1.4.1s-.5,0-.5-.6c0-.7-.3-1.3-.8-1.8-.4-.4-1-.6-2.3-.9v-.5c1.4.2,3.1.3,3.5.3.8,0,1-.3,1.1-3.2h-5.7v7.5c0,.8,0,.9.9.9h3.5c1.9,0,3.9,0,4.3-.2.4-.2,1.2-1.6,2.5-4.9h.3l-.2,3.4c0,.2,0,.3,0,.4,0,.3.1.5.6.7.9.3,1.2.8,1.2,1.5,0,1.1-.8,1.8-2.3,2.1-.8.1-5,.3-7.6.3-5.3,0-6.7-.5-6.8-2.6v-9c-1.6,1.4-2.7,2.2-5,3.5l-.3-.4c2.5-2.4,4.5-5,6.1-7.9h-2.2c-1.2,0-1.7,0-2.8.3l-.3-1.5c1.2.2,2.1.3,3.1.3h2.6c.5-.8,1.1-2.1,1.7-3.7h-1.1c-1,0-1.5,0-2.4.2l-.2-1.1c-1.8,1.6-2.2,1.9-4.3,3.2l-.2-.3c2.3-3.1,4.1-6.6,4.8-9.2.8.2,1.4.4,1.8.6.2,0,.2,0,.3,0,2.1.5,2.6.8,2.6,1.1s-.4.5-1.5.6c-1.2,1.6-1.8,2.4-3.1,3.7.9.1,1.5.2,2.2.2h1.6c.8-2.3,1.2-4.5,1.4-6.8,4.9.8,5.3.9,5.3,1.3s-.3.5-1.4.9c-.7,2.2-1,3.2-1.6,4.6h2.9c.9-1,1.2-1.3,2-2.3,1.3,1.1,1.7,1.5,2.9,2.6.1.1.2.3.2.4s-.1.2-.3.2h-6,0ZM386,18.9c-.8,1.3-1.2,1.8-2,2.7l1.6.9h5.6c.8-.7,1-.9,1.8-1.6-.1-.2-.2-.4-.3-.5-.6-.9-.7-1.1-.9-1.5h-5.8ZM388.4,14.3c-.7,1.6-1.2,2.4-1.9,3.7h4.7c-.6-1.3-.9-2.1-1.4-3.7h-1.4,0ZM393.2,7.7c5.7,1.4,6.9,2.2,6.9,4.3s-.7,2.7-1.4,2.7-.6-.3-1-1c-.9-1.6-3-4.1-4.7-5.5l.2-.4h0ZM83.3,90.8c1.2,1.9,2.9,3.4,5.6,4.9,3.3,1.9,6.3,2.8,11.2,3.3v.5c-1.3.7-2,1.4-2.6,3-.2.5-.2.7-.4,1.4,0,.3-.2.5-.4.5-.4,0-2.1-.8-3.5-1.6-4.8-2.9-7.5-6-10.4-11.5v5.1c.2,4.3.3,7,.3,8.2,0,.5,0,.8-.3.9-.4.3-1.3.4-2.8.4s-1.4-.1-1.5-.9c0-2,.2-6,.2-7.5v-2.9c-2.9,3.1-5,4.7-8,6.5-2.4,1.4-4.4,2.3-8.1,3.6l-.2-.5c6-3.4,10.7-7.9,14.1-13.2h-4.4v.6c0,.5-.1.7-.3.8-.4.3-1.4.5-2.7.5s-1.3-.2-1.3-1c.2-4.1.2-5.8.2-9.6s0-5.1-.2-6.8c2,1,2.6,1.3,4.8,2.3h6.3v-4.5h-12.2c-1.1,0-1.8,0-3,.2l-.3-1.5c1.3.3,2.3.4,3.4.4h12.2c0-2.9,0-3.7-.3-5.3,5.5.6,6.1.7,6.1,1.3s-.4.7-1.6,1.1v3h8.7c1.4-1.6,1.8-2.1,3.1-3.6,2,1.6,2.5,2.1,4.5,3.8.2.2.2.2.2.4s-.2.2-.4.2h-16.1v4.5h6.9c.9-1.1,1.2-1.4,2.2-2.3,1.4,1,1.9,1.3,3.2,2.4.4.3.6.6.6.8s-.4.7-1.5,1.3c0,6.7,0,7.1.1,11.4v.2c0,.4,0,.6-.3.8-.4.3-1.5.5-2.9.5s-1-.2-1.1-.8v-1h-6.6,0ZM78.6,78.5h-6.7v5.1h6.7v-5.1ZM78.6,84.5h-6.7v5.4h6.7v-5.4ZM89.9,78.5h-7.2v5.1h7.2v-5.1ZM89.9,84.5h-7.2v5.4h7.2v-5.4ZM133.2,100.1v-19.8c0-1.7,0-3.6-.2-5.2,1.4.2,2.3.3,3,.4,2.7.3,3.5.6,3.5,1.1s-.5.8-1.6,1.2c0,2.9,0,5.2,0,6.7,0,7.1,0,13.9.2,19.2,0,.6-.2.9-.7,1.1-.4.2-1.6.3-2.7.3s-1.4-.1-1.4-1v-3.1h-22.7v2.4c0,.5,0,.8-.4,1-.4.3-1.5.5-2.8.5s-1.6-.2-1.6-1.2c.2-5.8.2-10.6.2-16.7s0-9.5-.3-12.1c5.1.7,5.4.7,5.9.9.3.2.5.3.5.6,0,.5-.4.7-1.5,1.1v22.6h8.7v-25.5c0-2.4-.1-5.2-.3-7,6.1.6,6.8.8,6.8,1.4s-.4.8-1.8,1.2v29.9h9.3ZM159.7,73.3c0-3.2-.2-5.2-.2-6.1,6.1.5,6.7.6,6.7,1.3s-.4.7-1.7,1.2v4.2h8.9l3.1-3.8c2.1,1.7,2.8,2.3,4.8,3.9.2.2.3.3.3.5,0,.2-.2.3-.4.3h-33.1c-1.4,0-2.4.1-3.2.3l-.3-1.7c1.1.3,2.3.5,3.5.5h11.8v-.6h0ZM171.7,81.6c1-1.1,1.3-1.5,2.3-2.7,1.9,1.3,2.4,1.6,3.9,2.9.2.2.3.4.3.6,0,.4-.4.8-1.6,1.5v6.3c0,1.4,0,3,0,4.8v2.3c-.2,1.7-.6,2.4-2,3.1-.8.4-2.2.8-3.2.8-.3,0-.5,0-.5,0h0c-.4,0-.5-.2-.6-.7-.1-2.3-1.2-3.2-4.7-4v-.5c1.2,0,3.1.1,5.8.2.4,0,.6-.3.6-.8v-13.1h-7.7v5.8c0,3.4,0,10.4.1,15.9,0,1.3-.5,1.5-3.4,1.5s-1.4-.2-1.5-1c0-2.1,0-7.5.2-16.2v-6.1h-6.9v17.5c0,.6-.2.9-.6,1.1-.4.2-1.7.3-2.8.3s-1.4-.2-1.4-1c.2-4.8.2-6.7.2-11.8s0-6.3-.2-9.7c2.3,1.2,3,1.6,5.1,2.8h6.6v-.2c0-1.9,0-4.3-.2-5.7,1.3.1,2.3.2,2.9.2,2.7.2,3.5.4,3.5,1s-.4.6-1.6,1v3.7h7.3ZM191.3,81.6c.5,2.9.6,4.3.6,6.5,0,3.6-.6,6.4-1.8,8.2-.8,1.1-1.6,1.7-2.4,1.7-1.3,0-2.4-1.7-2.4-3.7s.2-1.3.5-1.8c.2-.2.6-.6,1.4-1.3,1.2-1.1,2.2-2.8,2.8-4.8.4-1.4.6-2.5.8-4.8h.5,0ZM195.5,82.3c0-2.8,0-4.8-.2-6.4,6.1.8,6.5.9,6.5,1.6s-.3.6-1.7,1.1v20.6c0,1,0,1,5.1,1s4.1-.1,4.5-.9c.5-.9,1.4-3.9,2.9-10h.6c0,0-.3,9-.3,9h0c0,.7.2.8,1,1.1.9.2,1.5,1.1,1.5,2.1,0,1.4-1,2.3-2.8,2.6-1.6.2-4.6.3-8.5.3s-6.6-.1-7.6-.7c-.7-.5-1-1.1-1.1-2.7v-6.5c0,0,0-12.3,0-12.3h0ZM196.5,67.9c9.9,1.7,12.6,3.1,12.6,6.3s-.7,3.5-1.8,3.5-.9-.2-1.4-1c-3-3.8-5.8-6.3-9.6-8.4l.2-.5h0ZM213.3,81.1c5.7,4.4,8.7,8.1,8.7,10.7s-1.7,5-3.3,5-1.1-.5-1.3-1.9c-.7-5.4-1.9-9.1-4.4-13.5l.4-.3ZM246.8,74.5c1.7-3.9,2.3-5.7,2.7-7.7,6.2,1.7,6.5,1.8,6.5,2.4s-.5.7-1.4.7h-.4c-2.6,2.3-3.3,2.9-5.6,4.6h7c1.3-1.6,1.7-2.1,3-3.6,2.1,1.6,2.7,2,4.6,3.7.2.2.3.4.3.5,0,.2-.2.3-.5.3h-15.3c-2,2.6-2.9,3.6-4.8,5.5h9.5c1-1.2,1.3-1.5,2.3-2.7,1.6,1.1,2,1.5,3.4,2.6.4.3.5.6.5.8,0,.4-.3.7-1.4,1.2v6.8c0,7.3,0,9.8.2,14.5,0,1.1-.7,1.3-3.3,1.3s-1.4-.1-1.4-.9v-1.8h-15.8v1.5c0,.4-.1.6-.3.8-.4.2-1.4.5-2.6.5s-1.7-.2-1.7-1.1c.2-5.7.2-9.2.2-15.7s0-7-.2-10.5c2.3,1.1,2.9,1.4,5,2.6h3.6c.8-4,.8-4.4,1-5.5h-10.7c-1.7,0-2.7,0-3.8.3l-.3-1.6c1.4.3,2.7.4,4.2.4h7.3c-.3-.2-.7-1-1.2-2.4-.7-1.9-1.4-3.1-2.9-4.7l.2-.4c2.9.8,4.1,1.3,5.2,1.9,1.4.8,2,1.7,2,2.7s-.6,2.3-1.7,3h6.8ZM252.7,87.3v-5.5h-15.8v5.5h15.8ZM236.9,88.2v6.2h15.8v-6.2h-15.8ZM236.9,95.2v6.6h15.8v-6.6h-15.8ZM296.6,72.2c1.2-1.6,1.6-2.1,2.9-3.7,2.1,1.6,2.7,2.1,4.7,3.8.2.2.3.4.3.5,0,.2-.2.3-.5.3h-29.1c-.2,12.8-.4,15.3-1.1,19.1-1,5.1-2.9,9-6.5,13.1l-.4-.3c2.8-6.5,3.6-12.1,3.6-25s0-7.6-.3-10.6c2.3,1.1,2.9,1.5,5.1,2.8h8.9v-2.7c0-1.1,0-1.6-.2-2.8,4.9.5,5.4.6,5.9.8.3.1.5.3.5.5,0,.4-.5.7-1.8,1.1v3.2h7.9ZM278.6,95.1c-1.1,0-1.8,0-2.9.2l-.2-1.5c1.1.2,2.1.4,3.1.4h7.3v-15.2c0-2.4,0-3.1-.2-4.8,5.6.5,6,.6,6,1.1s-.4.6-1.6.9v17.9h4.8c1.3-1.5,1.6-1.9,2.9-3.4,1.9,1.5,2.5,1.9,4.3,3.5.2.2.3.4.3.5,0,.2-.2.3-.6.3h-11.7v8h6.7c1.4-1.6,1.8-2.1,3.1-3.7,2,1.6,2.6,2.2,4.6,3.9.2.2.3.3.3.4s-.2.2-.5.2h-29c-1.2,0-2.3,0-2.9.2l-.2-1.6c1,.3,2.2.4,3.2.4h10.6v-8h-7.3,0ZM274.6,91.9c2.4-5.2,3.8-10.7,4-16,5.3,1.1,5.6,1.2,5.6,1.7s-.4.5-1.5.7c-.7,2.4-1,3.4-1.8,5,3.2,1.9,4.5,3.4,4.5,5.1s-1,2.9-2,2.9-.8-.4-1-1.6c-.6-2.9-.9-3.9-1.8-5.8-1.7,3.6-3.2,5.7-5.7,8.1l-.3-.3ZM290.5,91c1.3-2.6,2.1-4.9,2.9-8.4.7-2.9,1-5,1.1-6.7,5.6,1.2,5.8,1.3,5.8,1.8s-.2.4-.7.6l-1,.2c-.9,2.5-1.2,3.2-2,4.7,1.5.7,2.1,1,3.1,1.6,2,1,2.8,2.1,2.8,3.6s-1,3.1-2.1,3.1-.8-.2-1.2-1.8c-.8-2.5-1.5-3.9-2.9-5.7-1.5,2.9-3,4.8-5.5,7.3l-.4-.2h0ZM328.4,79.5c1,5,3,9.1,6,12.4,1.9,2.1,4.6,4.1,7.3,5.4,1.5.7,2.6,1.1,4.6,1.6v.6c-2.2,1.1-3.2,2.3-3.9,4.3-.2.6-.4.8-.6.8-.4,0-1.2-.5-2.5-1.5-4.1-3.2-6.9-7.3-9.1-12.9-1-2.8-1.6-5.4-2.2-9.2-.7,7-2.8,12.1-6.7,16.2-2.4,2.6-5.4,4.7-8.5,6.2-1.4.7-2.5,1.1-4.8,2l-.2-.5c5.9-4,8.9-6.9,11.4-11.1,2.3-3.9,3.6-8.6,4.1-14.1h-10.6c-1.4,0-2.4,0-3.7.3l-.2-1.5c1.3.2,2.5.4,3.9.4h10.6c.2-2.1.2-4,.2-6.8s0-2.7-.2-4.4c1.4.1,2.5.2,3.2.3,2.8.2,3.6.5,3.6,1s-.4.7-1.7,1.2c-.1,4.5-.2,6.1-.4,8.7h8.9l3-4.1c2.2,1.8,2.9,2.3,5,4.2.2.2.3.4.3.5,0,.2-.2.3-.5.3h-16.6ZM372.9,71.9v-.6c0-1.8,0-3.1-.2-4.4,1.2.1,2.2.2,2.9.2,2.6.2,3.2.3,3.2.8s-.4.6-1.6,1.1v2.8h2.3c1.2-1.4,1.5-1.8,2.6-3.2,1.8,1.4,2.3,1.9,3.9,3.4.1.1.2.2.2.4s-.2.2-.5.2h-8.5v14.2h2.5c1.2-1.5,1.6-1.9,2.8-3.3,1.9,1.5,2.5,2,4.3,3.7.2.2.2.2.2.3,0,.1-.2.2-.4.2h-13.2c1.7,2,2.7,2.9,4.5,3.8,2.6,1.4,4.9,2,9.6,2.5v.5c-1.1.6-1.5.9-2,1.8-.3.5-.7,1.3-.8,1.8-.2.5-.3.7-.5.7s-1.1-.3-1.8-.7c-3.2-1.6-6.1-4.2-8.1-7.3-.6-.9-1-1.7-1.6-3h-8.5c-1.6,2.6-3,4.2-5.1,6.2-2.8,2.5-5.3,3.9-9.7,5.8l-.3-.5c3.4-2.6,5-4.1,6.9-6.4,1.4-1.7,1.9-2.6,3.3-5.1h-6.5c-.9,0-1.7,0-2.6.3l-.2-1.5c1,.2,1.9.4,2.8.4h5.8v-14.2h-4.1c-1,0-1.5,0-2.5.2l-.2-1.5c.9.2,1.8.4,2.7.4h4.1v-.4c0-1.6,0-2.5-.2-4.6,4.8.4,5.1.5,5.5.6.3,0,.5.2.5.5,0,.3-.4.6-1.5,1v2.9h10.3ZM371.7,95.8c1-1.2,1.3-1.6,2.3-2.9,1.5,1.3,2,1.7,3.4,3.1.1.2.2.2.2.3,0,.2-.2.2-.4.2h-7.5v6.6h8.4c1.3-1.5,1.7-2,2.9-3.4,1.9,1.5,2.4,2,4.2,3.6.2.2.2.3.2.4,0,.2-.2.3-.5.3h-30.6c-.9,0-1.8,0-2.7.3l-.2-1.6c1,.2,2,.4,2.9.4h11v-6.6h-4.6c-1,0-1.6,0-2.4.2l-.2-1.5c.9.2,1.8.3,2.7.3h4.6v-2.1c0-1.1,0-1.9-.2-3.8,1.2,0,2.1.2,2.8.2,2.4.1,3.1.3,3.1.8s-.4.6-1.4,1v3.9h2ZM362.6,76.8h10.2v-4h-10.2v4ZM362.6,81.8h10.2v-4.1h-10.2v4.1ZM362.6,86.9h10.2v-4.2h-10.2v4.2ZM404.4,92.7c-3.4,2.7-4.4,3.4-10.9,7.4-.2,1.6-.4,2.1-.8,2.1s-.3-.2-.5-.5c0-.2-.7-2.1-1.7-5.8,1.7-.2,2.1-.2,4.4-.9v-14.3h-2c-.8,0-1.6,0-2.3.2l-.3-1.5c.9.2,1.6.4,2.5.4h2v-5.8c0-2.4,0-3.6-.3-6.1,4.6.5,5.1.6,5.6.8.3,0,.5.3.5.5,0,.3-.4.6-1.7,1v9.6h.5c.8-1.3,1.1-1.7,1.9-2.9,1.3,1.3,1.7,1.8,2.8,3.1.1.2.2.3.2.4s-.2.2-.4.2h-5v13.2c2.3-.7,3.1-1,5.1-1.8l.2.5h0ZM403.6,84.1c-.8.3-1.5.7-2.2,1.1l-.8-1.4c1.2-.2,1.9-.3,2.7-.6l1.2-.5v-5.4c0-2.4,0-3.6-.2-6,3.6.3,5.5.6,5.8.7.1,0,.2.2.2.4,0,.3-.4.6-1.5,1v7.7l3.6-1.3c0-6.5-.1-10.7-.2-12.7,1.2.1,2.2.2,2.8.3,2.8.3,3.2.5,3.2.9s-.4.6-1.6,1v8.9l4-1.4c.7-1.3,1-1.7,1.8-3,1.7.9,2.2,1.2,3.7,2.1.4.2.6.5.6.7,0,.4-.3.7-1.4,1.3-.3,6.8-.4,8.2-.6,10.4-.4,4-.8,5.4-2.1,6.1-.8.4-2,.7-3,.7s-.5-.1-.5-.6c0-1.3-.4-2.2-.9-2.9-.3-.3-.6-.5-1.5-.9,0,2,0,2.6,0,5.2,0,1-.4,1.1-3,1.1s-1.5-.1-1.5-.9c.1-8.2.1-8.4.1-11.4s0-1.8,0-4.1l-3.7,1.3v17c0,.6,0,.9.3,1,.3.2,1.9.3,3.9.3,7.6,0,9.1,0,9.7-.5.7-.5,1.5-2.4,3.5-8.9h.5c0,0-.5,7.1-.5,7.1,0,.3,0,.5,0,.7,0,.4.1.6.7.9.8.5,1.2,1,1.2,1.8,0,1.3-.7,2.1-2.3,2.5-1.1.3-4.7.5-9,.5s-7.2,0-7.9-.1c-3.5-.1-4.3-.7-4.4-3.4,0-6.7,0-12.4,0-17.2l-1,.4h0ZM416.8,79.3c0,4.1,0,7.7,0,11,1.2.1,2,.2,2.5.2.8,0,1-.2,1.2-1.4.4-2.5.5-5.2.6-11.4l-4.4,1.6ZM431.4,84.1c1.1.2,2.1.3,2.7.3h2.6c.9-1.1,1.2-1.4,2.1-2.5,1.6,1.1,2,1.5,3.5,2.7.2.2.3.4.3.6,0,.4-.2.5-1.5,1.3v10.1c1,1.6,1.8,2.4,2.8,2.9,1.7.8,4.5,1.1,9.8,1.1s10.1-.3,15.8-.8v.5c-1.6,1-2.1,1.9-2.5,3.9,0,.4-.2.5-.6.5-.5,0-6.9.2-8.5.2-8.5,0-11.4-.5-13.6-2.1-1.7-1.3-2.6-2.7-4-6.1-1.4,2.4-2.4,3.8-5.1,7.2v.2c0,.1,0,.2,0,.5v.3c0,.6-.2.8-.5.8s-.4-.2-.6-.5c-.4-.8-.9-1.8-1.4-2.9-.2-.5-.6-1.4-1.1-2.5,1.6-.6,3.5-1.5,5.4-2.8v-11.6h-2.7c-.6,0-1.6.1-2.4.2l-.4-1.4h0ZM433.3,67.7c5.8,2.4,8.1,4.2,8.1,6.6s-1.6,4-3,4-1-.4-1.3-1.7c-1.2-4.1-2.1-6-4.1-8.5l.3-.3h0ZM453.2,74.3v-3.7c0-1.4,0-2.2-.2-3.6,5.4.6,6,.8,6,1.3s-.4.6-1.6,1.1v4.9h3.2c1.1-1.5,1.5-1.9,2.7-3.3,1.9,1.5,2.4,2,4.2,3.6.1.1.2.2.2.3,0,.2-.2.3-.4.3h-9.9v6.7h4.5c1.2-1.6,1.6-2,2.9-3.4,2,1.6,2.5,2.1,4.4,3.8.1,0,.2.2.2.2,0,.2-.2.2-.5.2h-24.7c-.6,0-1.7,0-2.2.2l-.3-1.4c.9.2,1.8.3,2.5.3h9v-6.7h-4.7c-1.6,2.3-3,4-5.4,5.9l-.4-.3c1.4-2.7,2.4-5.4,3.3-8.9.4-1.4.6-2.4.7-4,4.5,1.2,5,1.4,5.5,1.8.2.2.4.3.4.5,0,.4-.3.6-1.8.9-.8,1.7-1.1,2.2-1.8,3.3h4.1ZM460.4,86.8c.9-1,1.2-1.3,2.2-2.2,1.5,1,1.9,1.3,3.3,2.3.3.2.4.3.4.5,0,.2-.3.6-1.2,1.3v2.1c0,2.1,0,4.4,0,7,0,.5-.2.7-.7.8-.4,0-1.9.2-2.7.2s-.9-.2-1-.8v-1.8h-10.7v1.8c0,.8-.6.9-2.5.9s-1.8,0-1.9-.8c.1-2.5.2-4.8.2-8.3s0-3.9-.2-5.5c2.1,1,2.8,1.3,4.8,2.3h10,0ZM450,95.4h10.7v-7.7h-10.7v7.7ZM476.5,78.7c-.8.8-1.8,1.6-3.7,3.1l-.4-.4c3.4-5,5.6-10,6.4-14.4,1.3.3,2.4.5,3,.7,2.7.6,3.2.8,3.2,1.2s-.5.6-1.8.8l-.2.2c4.5,1.9,5.5,2.7,5.5,4.2s-1.1,3.1-2.2,3.1-.5-.1-.6-.3c0-.1-.3-.6-.5-1.5-.8-2.3-1.3-3.4-2.5-4.9-2,3.4-3.7,5.7-6,7.9.4,0,1.3.2,1.7.2h4.1c.8-1.1,1.1-1.5,1.9-2.6,1.5,1.2,2,1.6,3.3,2.9.2.2.2.2.2.3,0,.2-.2.2-.4.2h-4.8v5.3h.9c.9-1.2,1.2-1.5,2.1-2.6,1.4,1.3,1.8,1.7,3.2,3,.1.1.2.2.2.3,0,.2-.2.2-.4.2h-5.9v12.7c2.2-.3,3.1-.5,5.7-1v.5c-4.5,2.3-7.3,3.6-12.6,5.7-.2,1.3-.4,1.7-.7,1.7s-.6-.6-2-6c1.9,0,2.4,0,5.8-.5v-13.2h-3.5c-.6,0-1.2,0-1.9.2l-.3-1.4c.8.2,1.5.3,2.2.3h3.5v-5.3h-.6c-.7,0-1.2,0-1.8.2v-1c-.1,0-.1,0-.1,0ZM474.1,87.5c2.5,2.1,4,4.4,4,6.1s-1.3,3.4-2.5,3.4-.7-.5-.7-1.8c0-3.1-.3-4.7-1.1-7.5l.4-.2h0ZM482.6,105.5c2.8-1.6,4.4-2.7,6.3-4.4,1.7-1.5,2.4-2.3,3.4-3.8,1.1.5,2,.8,2.5,1.1,2.2.9,2.8,1.3,2.8,1.7s-.4.5-2,.5c-4.4,2.8-7.3,4-12.8,5.4v-.6c-.1,0-.1,0-.1,0ZM483.4,97c1-4.5,1.3-6.7,1.4-9.6,4.1,1.5,4.6,1.8,4.6,2.1s-.4.5-1.3.7c-1.6,3.1-2.3,4.4-4.1,7l-.4-.2h0ZM507.3,92.5c1.9,1.6,2.2,1.8,3.7,3.2.1.2.2.3.2.4s-.2.2-.5.2h-21.1c-1,0-1.4,0-2.3.3l-.2-1.5c.9.2,1.6.3,2.6.3h15.1c.9-1.1,1.1-1.3,1.8-2.1-.7.1-1.2.2-1.9.2-1.2,0-1.4,0-1.4-.8v-.6h-9.1v.9c0,.8-.5.9-2.5.9s-1.6,0-1.6-.8c0-3.7.1-6.8.1-9.5,0-4.5,0-6.3-.2-8.9,2,1,2.6,1.3,4.4,2.3h2.1v-4.1h-5c-.9,0-1.4,0-2.2.2l-.2-1.5c1.1.2,1.6.3,2.5.3h5v-.8c0-1.6,0-2.5-.2-4.2,5.5.5,5.8.6,5.8,1.1s-.4.6-1.6,1v3h3.4c1.1-1.4,1.4-1.8,2.5-3.1,1.7,1.4,2.2,1.9,3.8,3.3.2.2.2.3.2.4s-.2.2-.5.2h-9.5v4.1h2.4c.9-1,1.2-1.3,2.1-2.2,1.3.9,1.7,1.2,2.9,2.1.4.3.6.5.6.8,0,.3-.4.6-1.3,1.1v2.8c0,3.2,0,6.5.2,10.8h0s0,0,0,0ZM503.1,81.7v-3.6h-9.1v3.6h9.1ZM494,82.6v3.7h9.1v-3.7h-9.1ZM494,87.2v4.2h9.1v-4.2h-9.1ZM499.3,97.8c8.7,1.3,10.4,2.1,10.4,4.9s-.8,2.9-1.8,2.9-.8-.2-1.4-.9c-.6-.8-1.8-2.2-2.7-2.9-1.2-1.1-2.2-1.9-4.8-3.5l.2-.4h0Z"
  />
  <use xlink:href="#g" fill="url(#rg)" />
  <use xlink:href="#g" fill="url(#gr1)" />
</svg>