<svg xmlns="http://www.w3.org/2000/svg" xmlns:xlink="http://www.w3.org/1999/xlink" viewBox="0 0 1920 693" preserveAspectRatio="none">
  <defs>
    <radialGradient id="paint0" cx="0" cy="887.3" fx="0" fy="887.3" r="1" gradientTransform="translate(-192504.9 -589034.8) rotate(161.8) scale(1075.9 -699.3)" gradientUnits="userSpaceOnUse">
      <stop offset="0" stop-color="#817057"/>
      <stop offset=".2" stop-color="#ffdb7f"/>
      <stop offset=".3" stop-color="#d9b971"/>
      <stop offset=".5" stop-color="#af9261"/>
      <stop offset=".6" stop-color="#c6a76a"/>
      <stop offset=".7" stop-color="#e7c677"/>
      <stop offset=".8" stop-color="#95815d"/>
      <stop offset="1" stop-color="#caab6b"/>
    </radialGradient>
    <linearGradient id="gr1" x1="-600" y1="0" x2="-200" y2="200" gradientUnits="userSpaceOnUse">
    <stop offset="0" stop-color="#fff0"/>
    <stop offset=".5" stop-color="#fff"/>
    <stop offset="1" stop-color="#fff0"/>
    <animate attributeName="x1" values="-400;5400" dur="4s" begin="3s" repeatCount="indefinite"/>
    <animate attributeName="x2" values="-200;6000" dur="4s" begin="3s" repeatCount="indefinite"/>
    </linearGradient>
  <path id="w" d="M168,499.8c-67.5,20.8-139.7,70.1-191.2,116.8-78.5,42.4-161,76.6-247.7,101.7l1.2,3.6c68-19.7,135.5-45.7,198.5-76.5,128.2-66.9,323.2-186,458.6-144.1,83.2,24.2,101.7,97.4,152.1,153.4,71.9,74.2,166.7,74,298.1,50.2,184.5-39.8,350.6-145.8,538.4-171.1,180.8-23,356.2,34.7,453.9,186.7l5.6-1.8c-12.1-18.7-25.3-36.1-39.7-52.2,18.9,14.5,40.2,29,64.6,44l2.7-.9c-54.3-30.4-85.7-65.4-131.2-100.9,57,27.9,111.8,58.2,163.7,90.2l2.7-.9c-76.7-47-161.4-90.4-242.9-132.8,99.9,33.6,193.9,74.1,280.1,120.6l2.8-.9c-128.4-65.7-277.3-135.6-428.2-157,161.1,3.6,328.2,73.2,468.3,143.8l2.8-.9c-200.4-104.8-442.7-183.8-670.9-128.8,245.6-64.8,506.3-.3,717.7,113.5l2.6-.9c-59.4-41.9-154.7-70.5-226.4-91.5-171.8-60.6-369.7-66.8-547.5-7.7,271.3-91.7,569.9-60.3,811.3,86.9l2.7-.9c-236.2-145.4-534.5-178.3-799.8-92.6,283.2-93.4,600.6-79.5,846.7,77.2l2.6-.8c-234-151.7-539.6-166.7-806.9-92,288.6-84.9,626.3-81.9,870.6,71.1l2.8-.9c-240.6-151.6-554.5-151.3-828.5-85.5,307.1-75.8,638.9-87.4,890.3,65.2l2.7-.9c-241.6-148.7-558.3-140.4-856.7-75.7,297-78.3,648.9-81.7,912.3,57.4l2.8-.9c-242.2-131.2-577.8-134.8-852.8-73.9,320.6-67.8,621.3-70.2,888.4,62.1l6.8-2.2c-9.1-4-18.4-8-27.9-12.1-43.6-42.4-109.1-102.5-177.6-139.5-82-55.9-267.2-67.4-386.5-25-157.1,37.7-307.4,99.1-456.1,160.1,284.7-142.1,761-329.8,984.5-51.3,21.6,22.4,43.7,45.5,69.4,65.9l2.6-.8c-68.8-55-109.6-124.1-192.1-166.7-286.2-121.6-617.4,34.5-880.5,158.7,329.3-179.9,844.6-378,1085.6,3.6l2.4-.8c-272.8-416.2-806.1-146.6-1151.8,22.5,362.7-193.5,885.3-445.5,1173.8-29.7l2.4-.8c-208.3-293.9-524.6-259.3-845.7-132.5,308.2-151.2,713.4-159.2,865.4,126l5.6-1.8c-217.5-368.9-683.9-222.7-1013.6-78.3-273,113.2-646.1,262.4-908.3,37.4-31-21.7-63.5-44.6-98.1-63.5-231.7-120.5-532.8-97.1-777.8-12.5l1.2,3.6c141.5-50.2,296.5-73.6,437.4-68.6-143.9-2.7-297.6,28.2-432.9,82.7l.5,1.5c165.3-66.6,350.4-95.1,510-77.7-166-2.9-347.3,30.3-506.6,88.2l.5,1.5C-188.8,376.8-4.1,346,166.6,351.9c-159.3,1-361.3,46.7-523.1,103.8l.5,1.5c163.2-57.1,332.6-93.5,473.5-101.8-161.2,19.8-314.7,67.3-467.4,120.5l.5,1.5C-231.5,436.9-118.3,399.3,1.7,376.6c-115.7,37.6-232.5,72.4-346,116.4l.5,1.5c73.5-28.6,148.6-54.2,224.3-76.6-72,30.8-155,53.3-220.8,87.1l.5,1.6c40.9-20.5,85-37.4,133.9-53.7-46.4,19.4-91,39.5-130.8,63.4l1.2,3.8c116.3-63.5,249.1-118.1,381.6-150.2-130.5,35.1-262.4,91.9-377.9,161.6l.5,1.6C-198.2,455.2-46.3,384.9,106,360.5c-154.3,31.3-300.6,99-432.2,188.2l.5,1.7c115.7-77.7,284-169.2,468.2-192.9-164.7,30.8-336.7,110.9-458.9,221.5l.6,1.8C-191.2,469.6-8.4,376.3,174.1,356.5c-184.6,24.2-345.2,118.9-480.7,252.3l.6,1.9C-167.1,473.5,19,362.6,206,357.7c-194.1,13.6-381.8,142.2-506.9,268.8l.6,2c91.6-97.1,202.8-172.3,337.5-228.6-122.7,71.9-239.5,162.5-329.5,253.1l.6,2c76.8-77.6,168.1-150.7,272.1-218-100.8,71.9-163.3,165.9-267,233.5l.5,1.7c98.1-61.8,155-149.8,247.7-217.8-70.9,84.5-151.3,171.5-243,232.3l.5,1.7c64.4-41,124.8-102.1,178.9-157.6-51.5,63.4-98.4,122.8-176.4,165.4l1.2,3.7c24.1-13,47.5-28.9,69.6-47.6,54-23.7,83.6-55.4,117.9-92.1,45.3-47.6,86.2-95.9,149.1-130.3,150.7-83.6,373.1-46.2,439.5,127.6-89.2-141.1-272.1-200.8-425.7-120.5-141.9,81.3-181.5,204.8-349.7,264.9l.5,1.5c186.9-72.2,201.9-180.4,350.3-265.1,158.6-85.1,363.8-9.8,436,147.9-68.7-119.6-234.9-203.7-372-160.1-166.1,63-186.7,208.9-413.8,278.9l.5,1.5C-56.9,642.2-21.5,488.3,138.5,427.7c133.7-47.9,324.9,53.5,377.4,174.7-80.9-128.7-241.8-191.5-387.2-144.8-47.8,14.5-85.7,50.2-116.6,83.1-71.5,77.2-166.3,131.5-285.9,169.1l.5,1.5c106.6-32.9,201.2-85.1,265.1-147.4,35.3-34.5,63.8-71.4,111.9-94.6,156.2-68.6,352.4,7.4,423.2,161.3-22.6-30.6-40.1-64.3-67.2-91.6-83.8-71.7-206.4-91.1-309.8-57.8-88.5,26.7-137.4,101.9-212.7,148.8-65.7,37.4-138.6,58.9-208.9,86.1l.5,1.5c70.7-27.3,143.7-48.9,209.7-86.5,64.8-39.6,103.7-96.6,172.2-131.9,79.9-41,184.3-43.1,268.9-5.5-78.4-17.1-143.1-16.1-211.6,6.1h0ZM2026,448.6c-74.8-8.4-161.2-9.9-258.2-4.7,88.5-21.4,195.1-18.8,275.1,6.8-5.7-.8-11.3-1.5-17-2.1h0ZM2053.8,452.3c-84.7-30.1-206.3-31.9-294.5-7.8-35.7,2.1-72.8,5-111.3,8.9,162-38,346.9-72.4,467,10.7-20.6-4.8-40.9-8.7-61.1-11.7ZM2120,465.2c-56.6-45.2-141.3-55.5-220-53.3-88.9-1.6-216.9,37.4-329.2,50.2,178.2-47.7,377.3-119.7,551.6-10.4,14.4,9.1,29.1,18.5,45.2,26.3-16.1-4.8-31.9-9.1-47.6-12.8h0ZM2205.6,490.2c-29.4-8.1-56.8-23.8-81.2-39.9-200.9-128.8-447.6-5.6-662.8,33.8,176.2-54.3,471.7-173.1,651.9-53.3,36.6,21,68.9,43.8,106.2,64.3-4.7-1.7-9.3-3.3-14-4.9ZM2233.9,500.3c-42.4-21.8-77.9-47.6-118.7-70.9-205.7-128.7-499.6,12.5-705.4,68.7,179.9-77.2,456.6-161.8,634.4-119.6,90.7,24.8,162.7,92.6,237.1,140.3-15.5-6.3-31.3-12.5-47.4-18.5ZM1760.5,374c229-74,415.8,9.6,557.9,160.3-93.8-41.1-167.7-131-272.9-157.5-144.2-33.8-316.3,11.9-461.9,54.4-80.2,22.9-154,60.9-233,85.2,131.8-58.7,269.6-106.6,409.9-142.4h0ZM587.5,686.9c-45.1-21.9-60.8-66.1-73.9-110.3,46.4,86.9,131.1,133.3,227.1,137.6-62.3,3-115.8-6.3-153.2-27.3ZM837.3,701.2c-134,36.4-284-17.1-333.2-153.2,130.6,205.2,355.6,151.3,555.6,80.1-72.3,28.5-146.7,56.8-222.4,73.1h0ZM1447.8,447.3c-243.7,114.8-634.8,334.1-884.4,146.5-44.9-36.5-59.9-78.7-92.8-121.8,14.3,13.8,27.5,28.2,40.5,42.4,246.6,295.8,702.4,29.3,983.5-90.1-15.1,7.2-30.6,14.9-46.7,22.9ZM1592.9,379.8c2.3-.8,4.6-1.7,6.9-2.5-5.7,2.4-11.5,4.8-17.3,7.2l10.5-4.7ZM700.3,591.6c98.9,25.1,213.7,14.7,316.2-6.9-96.4,25.6-267.5,36.7-349.3-3,10.7,3.7,21.7,7,33.1,9.9ZM499.5,487.2c107.3,72.6,180.8,126.2,336.8,122.2,255.3-8.9,471.9-122.1,702.9-209.5-250.5,102.5-469.7,214.8-731,227.7-121.1.4-233.9-63.9-316.9-146.2,2.7,1.9,5.5,3.8,8.2,5.8ZM478,472.2c85.7,86.9,202.4,157.9,329.5,157.2,266.5-13.1,499.5-132.1,759.7-240.1,1.5-.6,3-1.1,4.6-1.7-301.8,124.7-798.5,436.5-1058.5,125.7-15.5-17-31.4-34.4-49-50.5,4.6,3.1,9.2,6.3,13.7,9.4h0ZM-106.4,543.7c17.4-20.4,54.2-68.4,72.1-87.1,67.2-68.5,198.3-115,299.4-85.7-77.7-3.8-178.4,14.9-245.6,59.9-74.3,48.4-106.7,117.7-174.9,170.9,17.4-19.2,33.3-38.8,49-58h0ZM423.4,449.2c-99.9-82.8-252.9-80.2-364.8-20.5-110.7,58.1-149.9,165.2-261.5,219.9,14.8-12.8,28.4-26.3,41.1-40,73.4-53.4,105.6-126.4,182.6-176.7,64.9-44.8,173.9-64.4,251.3-59.1,101.5,27.9,196.8,69.3,227.3,179.4-19.5-42.9-44.5-76.7-76.1-103h0ZM447.1,451.4c49.7,43.4,60.1,101.8,114.3,143.7,210.1,161,506.9,23.1,724.7-66.7-182.2,88.4-523.4,248.5-702.3,103-32.7-25.9-62.6-59.9-83.4-93.9-12-33.3-30.6-63.8-53.3-86.1h0ZM383.8,495.6s0,0,0,0c.4.2.8.4,1.2.5-.4-.1-.9-.2-1.3-.3,0,0,0,0,.1-.1ZM193,513.5c-45.3,14.8-90.2,36.2-132.3,58.2,41.6-30.2,114.6-70.2,159.4-66.3-8.9,2.4-18,5.2-27.1,8.1ZM225.2,504c-60.4-3.8-125.9,38.5-174.7,73-22.3,11.8-43.8,23.5-65.9,35.4,101.4-92.5,233.1-150.9,372.2-121.4-38.1-4.2-83.2.3-131.6,13h0Z"/>

  </defs>
  <use xlink:href="#w" fill="url(#paint0)" />
  <use xlink:href="#w" fill="url(#gr1)" />
</svg>