<svg width="294" height="61" viewBox="0 0 294 61" fill="none" xmlns="http://www.w3.org/2000/svg">
<rect x="0.666504" y="0.5" width="293.333" height="60" rx="10" fill="#FFE3BB"/>
<path d="M88.6524 12.6925V18.4107H85.071C83.7508 18.4107 82.8098 18.5894 82.4305 19.153C82.0513 19.7028 81.6721 20.4451 81.6721 21.5585V25.6135H88.4559L87.5148 32.074H81.6721V48.5H74.5092V32.074H68.6665V25.7922H74.5092V20.9949C74.5092 18.232 75.2676 16.1977 76.967 14.7131C78.6665 13.2286 80.7451 12.5 83.3856 12.5C85.6468 12.5 87.3463 12.5 88.6665 12.6787L88.6524 12.6925Z" fill="#666666"/>
<path d="M116.387 25.284H130.947V27.028H116.387V25.284ZM118.291 30.724H122.435V32.148H118.291V30.724ZM118.291 33.188H122.435V34.596H118.291V33.188ZM124.995 28.292H126.755V34.852H124.995V28.292ZM121.779 28.116H123.619V36.052C123.619 36.4467 123.571 36.7667 123.475 37.012C123.379 37.2573 123.197 37.4493 122.931 37.588C122.653 37.7267 122.328 37.812 121.955 37.844C121.592 37.876 121.165 37.892 120.675 37.892C120.621 37.6467 120.536 37.364 120.419 37.044C120.312 36.7347 120.195 36.4733 120.067 36.26C120.355 36.2707 120.643 36.2813 120.931 36.292C121.219 36.292 121.411 36.2867 121.507 36.276C121.603 36.276 121.672 36.2547 121.715 36.212C121.757 36.1693 121.779 36.1053 121.779 36.02V28.116ZM128.195 27.844H130.083V35.828C130.083 36.2973 130.024 36.66 129.907 36.916C129.8 37.1827 129.592 37.396 129.283 37.556C128.973 37.6947 128.6 37.7853 128.163 37.828C127.725 37.8707 127.213 37.8867 126.627 37.876C126.584 37.62 126.493 37.316 126.355 36.964C126.227 36.612 126.088 36.3133 125.939 36.068C126.355 36.0893 126.744 36.1 127.107 36.1C127.48 36.1 127.731 36.0947 127.859 36.084C127.987 36.084 128.072 36.068 128.115 36.036C128.168 35.9933 128.195 35.9187 128.195 35.812V27.844ZM118.595 23.524L120.419 22.884C120.707 23.204 120.995 23.556 121.283 23.94C121.571 24.324 121.784 24.6707 121.923 24.98L119.971 25.652C119.864 25.364 119.677 25.0173 119.411 24.612C119.155 24.2067 118.883 23.844 118.595 23.524ZM126.819 22.852L128.899 23.476C128.579 23.988 128.248 24.4893 127.907 24.98C127.576 25.46 127.267 25.876 126.979 26.228L125.251 25.636C125.443 25.38 125.635 25.092 125.827 24.772C126.019 24.452 126.2 24.1267 126.371 23.796C126.552 23.4547 126.701 23.14 126.819 22.852ZM117.267 28.116H122.307V29.732H119.075V37.844H117.267V28.116ZM141.155 24.148L142.467 22.9C142.851 23.0813 143.256 23.3 143.683 23.556C144.12 23.8013 144.536 24.052 144.931 24.308C145.325 24.564 145.645 24.8093 145.891 25.044L144.483 26.436C144.259 26.212 143.96 25.9613 143.587 25.684C143.213 25.4067 142.813 25.1347 142.387 24.868C141.96 24.5907 141.549 24.3507 141.155 24.148ZM139.363 26.132H148.179V27.94H139.363V26.132ZM139.699 30.804H147.923V32.596H139.699V30.804ZM138.723 35.62H148.787V37.476H138.723V35.62ZM142.755 26.788H144.803V36.948H142.755V26.788ZM137.603 26.34L139.299 27.028C138.915 27.6787 138.456 28.3347 137.923 28.996C137.4 29.6573 136.851 30.276 136.275 30.852C135.699 31.428 135.128 31.9347 134.563 32.372C134.509 32.2333 134.419 32.0467 134.291 31.812C134.173 31.5773 134.045 31.3427 133.907 31.108C133.768 30.8627 133.645 30.6707 133.539 30.532C134.029 30.2013 134.525 29.812 135.027 29.364C135.528 28.9053 136.003 28.42 136.451 27.908C136.899 27.3853 137.283 26.8627 137.603 26.34ZM137.091 22.916L138.915 23.652C138.563 24.1533 138.152 24.6547 137.683 25.156C137.213 25.6573 136.717 26.132 136.195 26.58C135.683 27.0173 135.171 27.4013 134.659 27.732C134.595 27.5827 134.504 27.4067 134.387 27.204C134.269 27.0013 134.147 26.7987 134.019 26.596C133.901 26.3933 133.795 26.228 133.699 26.1C134.125 25.844 134.552 25.5347 134.979 25.172C135.416 24.8093 135.821 24.436 136.195 24.052C136.568 23.6573 136.867 23.2787 137.091 22.916ZM135.971 30.052L137.747 28.276L137.827 28.324V37.94H135.971V30.052ZM159.539 23.22L161.347 23.476C161.176 24.436 160.941 25.3427 160.643 26.196C160.344 27.0387 159.96 27.8013 159.491 28.484C159.032 29.1667 158.451 29.764 157.747 30.276C157.725 30.1053 157.677 29.8973 157.603 29.652C157.528 29.396 157.443 29.14 157.347 28.884C157.261 28.6173 157.171 28.4093 157.075 28.26C157.779 27.716 158.323 27.012 158.707 26.148C159.101 25.2733 159.379 24.2973 159.539 23.22ZM158.307 29.028H164.211V30.804H158.307V29.028ZM163.315 29.028H165.203C165.203 29.028 165.197 29.076 165.187 29.172C165.187 29.268 165.187 29.3747 165.187 29.492C165.187 29.6093 165.181 29.7107 165.171 29.796C165.128 31.0013 165.08 32.0307 165.027 32.884C164.984 33.7267 164.925 34.4307 164.851 34.996C164.787 35.5507 164.712 35.9933 164.627 36.324C164.552 36.644 164.456 36.884 164.339 37.044C164.168 37.268 163.987 37.4227 163.795 37.508C163.613 37.604 163.405 37.6733 163.171 37.716C162.968 37.7587 162.707 37.7853 162.387 37.796C162.067 37.8067 161.725 37.8013 161.363 37.78C161.352 37.524 161.299 37.2253 161.203 36.884C161.117 36.5533 161.005 36.2707 160.867 36.036C161.155 36.068 161.411 36.0893 161.635 36.1C161.869 36.1 162.051 36.1 162.179 36.1C162.296 36.1 162.392 36.084 162.467 36.052C162.552 36.02 162.627 35.956 162.691 35.86C162.797 35.732 162.888 35.444 162.963 34.996C163.037 34.548 163.101 33.876 163.155 32.98C163.219 32.0733 163.272 30.8733 163.315 29.38V29.028ZM159.747 30.02L161.587 30.084C161.501 31.332 161.325 32.4467 161.059 33.428C160.792 34.4093 160.408 35.2733 159.907 36.02C159.416 36.756 158.776 37.3853 157.987 37.908C157.912 37.7907 157.795 37.6413 157.635 37.46C157.485 37.2893 157.325 37.1133 157.155 36.932C156.995 36.7613 156.851 36.6227 156.723 36.516C157.789 35.9187 158.541 35.076 158.979 33.988C159.416 32.8893 159.672 31.5667 159.747 30.02ZM163.843 23.108C164.013 23.9507 164.216 24.6973 164.451 25.348C164.685 25.9987 164.968 26.58 165.299 27.092C165.64 27.5933 166.056 28.0627 166.547 28.5C166.291 28.692 166.04 28.932 165.795 29.22C165.549 29.508 165.363 29.7907 165.235 30.068C164.659 29.5027 164.173 28.9 163.779 28.26C163.395 27.62 163.075 26.9053 162.819 26.116C162.563 25.3267 162.333 24.436 162.131 23.444L163.843 23.108ZM153.731 22.9H155.507V37.924H153.731V22.9ZM151.459 28.356H157.299V30.148H151.459V28.356ZM153.619 29.22L154.835 29.716C154.653 30.4413 154.424 31.204 154.147 32.004C153.869 32.804 153.56 33.5667 153.219 34.292C152.877 35.0173 152.509 35.6307 152.115 36.132C152.019 35.844 151.88 35.5133 151.699 35.14C151.517 34.7667 151.352 34.4467 151.203 34.18C151.533 33.7747 151.853 33.2893 152.163 32.724C152.483 32.1587 152.771 31.5667 153.027 30.948C153.283 30.3293 153.48 29.7533 153.619 29.22ZM155.331 30.356C155.448 30.452 155.619 30.6173 155.843 30.852C156.067 31.0867 156.301 31.3373 156.547 31.604C156.803 31.8707 157.037 32.1213 157.251 32.356C157.464 32.5907 157.613 32.7613 157.699 32.868L156.547 34.42C156.429 34.196 156.28 33.94 156.099 33.652C155.917 33.364 155.72 33.0707 155.507 32.772C155.304 32.4627 155.107 32.1693 154.915 31.892C154.723 31.6147 154.552 31.3853 154.403 31.204L155.331 30.356ZM151.443 24.276L152.803 23.956C152.963 24.532 153.112 25.1507 153.251 25.812C153.4 26.4733 153.512 27.0493 153.587 27.54L152.147 27.892C152.115 27.5613 152.061 27.188 151.987 26.772C151.912 26.356 151.827 25.9293 151.731 25.492C151.645 25.0547 151.549 24.6493 151.443 24.276ZM156.291 23.844L157.939 24.196C157.811 24.6227 157.667 25.06 157.507 25.508C157.357 25.9453 157.208 26.372 157.059 26.788C156.92 27.1933 156.776 27.5507 156.627 27.86L155.379 27.524C155.496 27.1933 155.613 26.8147 155.731 26.388C155.848 25.9507 155.955 25.508 156.051 25.06C156.157 24.612 156.237 24.2067 156.291 23.844ZM178.835 30.884H180.675V37.94H178.835V30.884ZM178.931 22.868L180.787 23.524C180.52 23.9293 180.243 24.3507 179.955 24.788C179.667 25.2253 179.379 25.6413 179.091 26.036C178.813 26.42 178.552 26.7613 178.307 27.06L176.947 26.484C177.181 26.1533 177.421 25.78 177.667 25.364C177.923 24.948 178.157 24.5213 178.371 24.084C178.595 23.6467 178.781 23.2413 178.931 22.868ZM181.059 24.756L182.851 25.54C182.403 26.1693 181.917 26.8253 181.395 27.508C180.872 28.18 180.344 28.8253 179.811 29.444C179.288 30.0627 178.787 30.6013 178.307 31.06L176.963 30.34C177.315 29.9667 177.677 29.556 178.051 29.108C178.435 28.6493 178.808 28.1693 179.171 27.668C179.544 27.1667 179.891 26.6653 180.211 26.164C180.541 25.6627 180.824 25.1933 181.059 24.756ZM175.987 26.66L176.915 25.348C177.256 25.604 177.613 25.8867 177.987 26.196C178.36 26.5053 178.707 26.82 179.027 27.14C179.347 27.4493 179.597 27.7373 179.779 28.004L178.771 29.492C178.6 29.2147 178.355 28.9107 178.035 28.58C177.725 28.2387 177.389 27.9027 177.027 27.572C176.675 27.2307 176.328 26.9267 175.987 26.66ZM180.787 28.644L182.243 27.94C182.499 28.3027 182.749 28.6973 182.995 29.124C183.251 29.54 183.475 29.9507 183.667 30.356C183.869 30.7613 184.019 31.124 184.115 31.444L182.547 32.244C182.472 31.9133 182.339 31.54 182.147 31.124C181.965 30.708 181.752 30.2867 181.507 29.86C181.272 29.4227 181.032 29.0173 180.787 28.644ZM176.195 29.924C176.749 29.9027 177.384 29.876 178.099 29.844C178.813 29.812 179.565 29.78 180.355 29.748C181.155 29.7053 181.944 29.668 182.723 29.636L182.707 31.332C181.608 31.4067 180.504 31.476 179.395 31.54C178.285 31.604 177.293 31.6627 176.419 31.716L176.195 29.924ZM180.819 33.012L182.387 32.436C182.621 32.82 182.851 33.236 183.075 33.684C183.299 34.132 183.501 34.5693 183.683 34.996C183.864 35.4227 184.008 35.8067 184.115 36.148L182.435 36.82C182.349 36.4787 182.221 36.0893 182.051 35.652C181.88 35.2147 181.683 34.7667 181.459 34.308C181.245 33.8387 181.032 33.4067 180.819 33.012ZM176.915 32.532L178.675 32.884C178.504 33.652 178.275 34.3987 177.987 35.124C177.699 35.8493 177.395 36.4573 177.075 36.948C176.947 36.8627 176.787 36.7667 176.595 36.66C176.403 36.5533 176.205 36.4573 176.003 36.372C175.8 36.276 175.624 36.196 175.475 36.132C175.816 35.684 176.109 35.14 176.355 34.5C176.6 33.8493 176.787 33.1933 176.915 32.532ZM171.779 30.884H173.539V37.94H171.779V30.884ZM171.667 22.868L173.475 23.508C173.219 23.924 172.952 24.3507 172.675 24.788C172.397 25.2147 172.125 25.6253 171.859 26.02C171.603 26.404 171.352 26.7453 171.107 27.044L169.779 26.484C170.003 26.1533 170.232 25.78 170.467 25.364C170.701 24.948 170.92 24.5213 171.123 24.084C171.336 23.6467 171.517 23.2413 171.667 22.868ZM173.651 24.74L175.411 25.524C174.984 26.132 174.52 26.7667 174.019 27.428C173.528 28.0893 173.032 28.724 172.531 29.332C172.04 29.94 171.571 30.468 171.123 30.916L169.859 30.228C170.189 29.8653 170.525 29.46 170.867 29.012C171.219 28.564 171.565 28.0947 171.907 27.604C172.248 27.1133 172.568 26.6227 172.867 26.132C173.165 25.6413 173.427 25.1773 173.651 24.74ZM168.867 26.724L169.747 25.364C170.077 25.6093 170.413 25.892 170.755 26.212C171.107 26.5213 171.427 26.8307 171.715 27.14C172.013 27.4493 172.248 27.7373 172.419 28.004L171.459 29.556C171.299 29.2787 171.075 28.9747 170.787 28.644C170.499 28.3027 170.184 27.9667 169.843 27.636C169.512 27.2947 169.187 26.9907 168.867 26.724ZM173.379 28.756L174.819 28.132C175.021 28.484 175.224 28.868 175.427 29.284C175.64 29.7 175.827 30.1053 175.987 30.5C176.157 30.884 176.285 31.236 176.371 31.556L174.835 32.292C174.76 31.9827 174.643 31.6253 174.483 31.22C174.333 30.804 174.163 30.3827 173.971 29.956C173.779 29.5293 173.581 29.1293 173.379 28.756ZM168.867 29.908C169.411 29.8973 170.024 29.8867 170.707 29.876C171.4 29.8547 172.125 29.8333 172.883 29.812C173.651 29.78 174.413 29.748 175.171 29.716L175.139 31.428C174.061 31.4813 172.984 31.5293 171.907 31.572C170.84 31.6147 169.885 31.652 169.043 31.684L168.867 29.908ZM173.667 32.836L175.155 32.34C175.368 32.7453 175.571 33.188 175.763 33.668C175.965 34.1373 176.115 34.5427 176.211 34.884L174.659 35.492C174.573 35.1293 174.429 34.7027 174.227 34.212C174.035 33.7107 173.848 33.252 173.667 32.836ZM169.795 32.34L171.507 32.628C171.411 33.4067 171.261 34.1693 171.059 34.916C170.867 35.652 170.643 36.2707 170.387 36.772C170.259 36.6867 170.093 36.6013 169.891 36.516C169.699 36.4307 169.501 36.3453 169.299 36.26C169.107 36.1747 168.931 36.1107 168.771 36.068C169.048 35.6093 169.267 35.044 169.427 34.372C169.597 33.6893 169.72 33.012 169.795 32.34ZM186.755 33.028H201.395V34.532H186.755V33.028ZM187.203 23.94H200.835V25.38H187.203V23.94ZM195.939 32.084H197.795V36.084C197.795 36.5213 197.741 36.8627 197.635 37.108C197.528 37.364 197.309 37.556 196.979 37.684C196.659 37.8013 196.269 37.8707 195.811 37.892C195.352 37.924 194.819 37.94 194.211 37.94C194.168 37.684 194.093 37.396 193.987 37.076C193.891 36.7667 193.784 36.4947 193.667 36.26C193.923 36.2707 194.184 36.2813 194.451 36.292C194.717 36.292 194.957 36.292 195.171 36.292C195.384 36.292 195.528 36.292 195.603 36.292C195.731 36.2813 195.816 36.26 195.859 36.228C195.912 36.196 195.939 36.1267 195.939 36.02V32.084ZM193.091 22.916H194.979V31.54H193.091V22.916ZM189.299 35.092L190.627 33.988C190.915 34.1693 191.219 34.3773 191.539 34.612C191.859 34.8467 192.163 35.0867 192.451 35.332C192.739 35.5667 192.968 35.7907 193.139 36.004L191.731 37.22C191.571 37.0067 191.352 36.772 191.075 36.516C190.808 36.2707 190.52 36.02 190.211 35.764C189.901 35.508 189.597 35.284 189.299 35.092ZM190.259 28.804V29.428H197.955V28.804H190.259ZM190.259 27.124V27.716H197.955V27.124H190.259ZM188.467 25.956H199.843V30.58H188.467V25.956ZM196.339 30.836L197.459 29.972C197.853 30.132 198.259 30.324 198.675 30.548C199.101 30.772 199.501 31.0013 199.875 31.236C200.248 31.46 200.563 31.6733 200.819 31.876L199.667 32.868C199.421 32.644 199.112 32.4093 198.739 32.164C198.365 31.9187 197.965 31.6787 197.539 31.444C197.123 31.2093 196.723 31.0067 196.339 30.836ZM187.427 31.172C188.163 31.1827 188.995 31.188 189.923 31.188C190.861 31.1773 191.859 31.172 192.915 31.172C193.981 31.172 195.069 31.172 196.179 31.172C197.288 31.1613 198.397 31.1453 199.507 31.124L199.443 32.308C198.013 32.3507 196.573 32.388 195.123 32.42C193.683 32.452 192.307 32.484 190.995 32.516C189.683 32.5373 188.515 32.5533 187.491 32.564L187.427 31.172ZM208.275 30.068V30.964H215.107V30.068H208.275ZM208.275 32.34V33.22H215.107V32.34H208.275ZM208.275 27.828V28.708H215.107V27.828H208.275ZM206.275 26.356H217.203V34.692H206.275V26.356ZM212.451 35.844L213.875 34.596C214.483 34.7987 215.107 35.0227 215.747 35.268C216.387 35.5133 216.989 35.7587 217.555 36.004C218.131 36.2493 218.621 36.468 219.027 36.66L217.107 37.94C216.765 37.7373 216.339 37.5133 215.827 37.268C215.325 37.0227 214.781 36.7773 214.195 36.532C213.619 36.2867 213.037 36.0573 212.451 35.844ZM204.899 23.652H218.339V25.396H204.899V23.652ZM210.643 24.484L212.979 24.74C212.829 25.2413 212.675 25.716 212.515 26.164C212.355 26.612 212.205 27.0013 212.067 27.332L210.211 27.012C210.307 26.6493 210.397 26.2333 210.483 25.764C210.568 25.2947 210.621 24.868 210.643 24.484ZM209.251 34.484L210.915 35.812C210.435 36.068 209.885 36.3293 209.267 36.596C208.659 36.8627 208.035 37.108 207.395 37.332C206.765 37.5667 206.173 37.764 205.619 37.924C205.459 37.7107 205.251 37.46 204.995 37.172C204.749 36.884 204.515 36.6387 204.291 36.436C204.856 36.2973 205.448 36.1213 206.067 35.908C206.696 35.684 207.288 35.4493 207.843 35.204C208.408 34.948 208.877 34.708 209.251 34.484Z" fill="#666666"/>
</svg>
