<?xml version="1.0" encoding="UTF-8"?>
<svg id="_圖層_1" data-name="圖層_1" xmlns="http://www.w3.org/2000/svg" version="1.1" xmlns:xlink="http://www.w3.org/1999/xlink" viewBox="0 0 241 241">
  <!-- Generator: Adobe Illustrator 29.3.1, SVG Export Plug-In . SVG Version: 2.1.0 Build 151)  -->
  <defs>
    <style>
      .st0 {
        fill: url(#_未命名漸層_3);
        fill-opacity: .6;
        isolation: isolate;
        opacity: .8;
      }

      .st1 {
        fill: #fff;
      }
    </style>
    <radialGradient id="_未命名漸層_3" data-name="未命名漸層 3" cx="-837" cy="660" fx="-837" fy="660" r="1" gradientTransform="translate(353846.7 279005.7) scale(422.7 -422.7)" gradientUnits="userSpaceOnUse">
      <stop offset="0" stop-color="#a27057"/>
      <stop offset=".1" stop-color="#bf9261"/>
      <stop offset=".2" stop-color="#d6a569"/>
      <stop offset=".3" stop-color="#ffc677"/>
      <stop offset=".8" stop-color="#aa815d"/>
      <stop offset="1" stop-color="#daab6b"/>
    </radialGradient>
  </defs>
  <path class="st0" d="M120.2,210c49,0,88.8-39.8,88.8-88.8s-39.8-88.8-88.8-88.8S31.4,72.2,31.4,121.2s39.8,88.8,88.8,88.8Z"/>
  <path class="st1" d="M90.8,93.6l2,.8c-.9,1.3-2,2.5-3.2,3.5-1.3,1-2.7,1.9-4.2,2.7-1.5.8-3.1,1.4-4.7,2,0-.2-.2-.3-.4-.6-.2-.2-.3-.5-.5-.7-.2-.2-.3-.4-.5-.6,1.6-.4,3.1-1,4.6-1.7,1.5-.7,2.8-1.5,4-2.4,1.2-.9,2.2-2,2.9-3.1ZM79.4,92.2l14.1-1.2.2,2-14.1,1.3-.2-2ZM83.4,88.1h2.2c0,1.4.2,2.7.4,3.9.2,1.2.5,2.4.9,3.4.4,1.1.8,2,1.3,2.8.5.8,1,1.4,1.5,1.8.5.4,1.1.6,1.6.6s.6-.2.7-.7c.2-.5.3-1.2.3-2.3.2.2.5.4.9.6.3.2.7.3.9.4-.1,1.1-.3,2-.5,2.6-.2.6-.5,1-.9,1.2-.4.2-.9.3-1.5.3-.9,0-1.7-.3-2.5-.8-.8-.5-1.4-1.2-2.1-2.2-.6-.9-1.2-2-1.6-3.2-.5-1.2-.8-2.6-1.1-4-.3-1.5-.5-3-.5-4.5ZM78,87.8l2.2.8c-.5.9-1.1,1.9-1.7,2.8-.7,1-1.4,1.9-2.1,2.7-.8.9-1.5,1.6-2.3,2.3,0-.2-.2-.4-.3-.6-.1-.2-.3-.5-.4-.7-.1-.2-.3-.4-.4-.6.7-.6,1.4-1.2,2-2,.7-.8,1.3-1.6,1.8-2.4.6-.8,1-1.6,1.4-2.4ZM87.2,89.1l1.2-1.3c.4.2.9.4,1.4.6.5.2.9.5,1.4.7.5.2.8.4,1.2.6l-1.2,1.4c-.3-.2-.7-.4-1.1-.7-.4-.3-.9-.5-1.4-.8-.5-.3-.9-.5-1.3-.7ZM76.2,92.5l2.1-2.1h0v12.6h-2.1v-10.5ZM76.1,83.1h7.2v1.7h-7.2v-1.7ZM85.6,83.1h8.5v1.7h-8.5v-1.7ZM76.4,81.4l1.9.6c-.3.8-.7,1.5-1.1,2.3s-.9,1.5-1.4,2.2c-.5.7-1,1.2-1.5,1.7,0-.1-.2-.3-.4-.5s-.4-.4-.6-.6c-.2-.2-.3-.3-.5-.4.7-.7,1.4-1.5,2-2.4.6-.9,1.1-1.9,1.5-2.9ZM85.9,81.4l2,.5c-.4,1.1-.9,2.2-1.5,3.3-.6,1.1-1.3,1.9-2,2.6-.1-.1-.3-.3-.5-.4-.2-.2-.4-.3-.6-.5-.2-.2-.4-.3-.6-.4.7-.6,1.3-1.4,1.8-2.3.5-.9,1-1.9,1.3-2.9ZM77.6,85.5l1.3-1.1c.4.3.9.7,1.3,1.2.5.4.8.8,1.1,1.2l-1.4,1.2c-.2-.3-.6-.7-1.1-1.2-.4-.5-.9-.9-1.3-1.3ZM87.7,85.6l1.4-1.2c.4.3.9.6,1.3,1,.5.4.8.8,1.1,1.1l-1.4,1.3c-.3-.3-.6-.7-1.1-1.1-.4-.4-.9-.8-1.3-1.1ZM111.4,82.9l1.4-1.2c.4.3.8.6,1.2.9.4.3.8.6,1.2,1,.4.3.7.6.9.9l-1.5,1.4c-.2-.3-.5-.6-.9-.9-.3-.3-.7-.7-1.1-1-.4-.3-.8-.6-1.2-.9ZM96.2,85.7h20.6v2.1h-20.6v-2.1ZM97.1,90.9h10.1v2.1h-10.1v-2.1ZM100.9,92.1h2.2v8h-2.2v-8ZM96.3,100.1c.9-.2,2-.4,3.2-.6,1.3-.2,2.6-.5,4-.8,1.4-.3,2.8-.6,4.2-.8l.2,1.9c-1.3.3-2.6.6-3.9.9-1.3.3-2.6.5-3.8.8-1.2.3-2.3.5-3.3.7l-.6-2.2ZM107.8,81.7h2.3c0,2,0,4,.1,5.9.1,1.9.3,3.6.6,5.2.3,1.6.6,3,.9,4.2.4,1.2.8,2.1,1.2,2.8.5.7.9,1,1.4,1s.5-.3.6-1c.2-.7.3-1.8.3-3.2.2.2.6.5.9.7.4.2.7.4,1,.5-.1,1.4-.3,2.5-.5,3.2-.2.8-.6,1.3-1,1.6s-.9.5-1.6.5-1.5-.3-2.1-.8c-.6-.5-1.2-1.3-1.7-2.3-.5-1-.9-2.1-1.2-3.5-.3-1.3-.6-2.8-.8-4.4-.2-1.6-.4-3.2-.5-5,0-1.8-.1-3.6-.2-5.4ZM120.1,83.6h19v1.8h-19v-1.8ZM120.8,100.5h17.5v1.8h-17.5v-1.8ZM124.7,86.7h9.6v1.6h-9.6v-1.6ZM124.7,89.6h9.6v1.6h-9.6v-1.6ZM118.9,92.6h21.2v1.8h-21.2v-1.8ZM123.9,96.7h11.2v1.8h-11.2v-1.8ZM123.4,81.6h2.2v12h-2.2v-12ZM133.5,81.6h2.2v12h-2.2v-12ZM128.4,95h2.2v6.5h-2.2v-6.5ZM124.7,93.1l1.8.7c-.5.8-1,1.6-1.7,2.3-.7.7-1.4,1.4-2.3,2-.8.6-1.6,1.1-2.5,1.4,0-.2-.2-.4-.4-.6-.2-.2-.3-.4-.5-.6-.2-.2-.3-.4-.5-.5.8-.3,1.6-.7,2.3-1.2.8-.5,1.5-1,2.1-1.7.6-.6,1.2-1.3,1.6-1.9ZM134.4,93.1c.4.6.9,1.2,1.6,1.8.6.6,1.3,1.1,2.1,1.5.8.5,1.5.8,2.3,1.1-.1.1-.3.3-.5.5-.2.2-.4.4-.5.6-.2.2-.3.4-.4.6-.8-.4-1.6-.8-2.4-1.4-.8-.6-1.5-1.2-2.2-1.9-.7-.7-1.2-1.4-1.7-2.2l1.7-.7ZM142.1,82.7h6.9v2h-6.9v-2ZM144.3,89.8h4.5v10.2h-4.5v-1.9h3v-6.4h-3v-1.9ZM144.7,83.7l1.9.4c-.3,1.4-.6,2.9-1,4.3-.4,1.4-.9,2.7-1.4,3.9-.6,1.2-1.2,2.3-1.9,3.2,0-.2-.1-.4-.2-.7,0-.3-.2-.6-.3-.9-.1-.3-.2-.6-.3-.7.8-1.1,1.5-2.5,2.1-4.2.5-1.7,1-3.4,1.2-5.2ZM143.5,89.8h1.6v12h-1.6v-12ZM149.4,83.9h6.4v1.7h-6.4v-1.7ZM149.4,92h12.3v1.8h-12.3v-1.8ZM156,96.2h6.3v1.8h-6.3v-1.8ZM152,81.6h1.7v9.7h-1.7v-9.7ZM151.7,84.9l1.3.7c-.2.6-.5,1.2-.9,1.9-.3.6-.7,1.2-1.1,1.8-.4.6-.8,1.1-1.3,1.5,0-.2-.2-.5-.4-.8-.2-.3-.4-.5-.5-.7.4-.3.8-.7,1.1-1.2.4-.5.7-1,1-1.6.3-.6.6-1.1.8-1.7ZM153.6,85.7c.1,0,.3.3.5.5.2.2.5.5.7.8.3.3.5.5.7.8.2.2.4.4.5.5l-1.1,1.3c-.1-.3-.4-.6-.6-1-.3-.4-.6-.8-.9-1.2-.3-.4-.5-.7-.7-.9l.9-.7ZM156.3,83.9h6.7v1.7h-6.7v-1.7ZM158.6,81.6h1.7v9.7h-1.7v-9.7ZM158.5,84.9l1.2.7c-.2.7-.5,1.3-.9,2-.4.7-.7,1.3-1.2,1.9-.4.6-.9,1.1-1.4,1.5,0-.2-.2-.4-.4-.7-.2-.3-.4-.5-.5-.7.4-.3.8-.7,1.2-1.2.4-.5.8-1.1,1.1-1.7.3-.6.6-1.2.8-1.8ZM161,92h.6c0-.1,1.4.3,1.4.3-.2.6-.4,1.2-.7,1.8-.2.6-.5,1.1-.7,1.6l-1.6-.6c.2-.4.3-.9.5-1.4.2-.5.3-1.1.5-1.6v-.2ZM152.3,96.7c.4,1.1.8,1.9,1.4,2.5.6.6,1.3,1,2.1,1.2.8.2,1.7.3,2.8.3h4c.3,0,.6,0,.8,0,0,.1-.2.3-.3.6,0,.2-.1.5-.2.7,0,.2-.1.4-.1.6h-4.3c-1.3,0-2.4-.1-3.4-.4-1-.3-1.8-.8-2.5-1.5-.7-.8-1.3-1.9-1.7-3.3l1.4-.5ZM155.1,92.6h2v9.1l-2-.9v-8.3ZM150.9,94.7l1.8.3c-.1,1.1-.3,2.1-.5,3.1-.2,1-.5,1.9-1,2.7-.4.8-1,1.5-1.8,2.1l-1.5-1.4c.7-.5,1.2-1.1,1.6-1.8.4-.7.7-1.5.9-2.4.2-.9.4-1.8.4-2.8ZM160.4,85.2c.1.1.4.4.6.7.3.3.6.7.9,1.1.3.4.6.8.9,1.1.3.4.5.6.6.8l-1.2,1.5c-.1-.3-.3-.6-.6-1-.2-.4-.5-.8-.8-1.3-.3-.4-.5-.9-.8-1.2-.3-.4-.5-.7-.6-.9l.9-.7ZM117,123.4v-5h-4.6v-1.9h4.6v-5h2v5h4.7v1.9h-4.7v5h-2ZM80,147.2h17.1v1.7h-17.1v-1.7ZM81.7,143.4h11.3v1.5h-11.3v-1.5ZM83.9,139.6v1.3h8.6v-1.3h-8.6ZM83.9,137.1v1.2h8.6v-1.2h-8.6ZM81.8,135.7h12.8v6.6h-12.8v-6.6ZM87.3,146.1h2.1v4.6c0,.5,0,.9-.2,1.2-.2.3-.4.5-.9.6-.4.1-1,.2-1.6.2-.6,0-1.4,0-2.4,0,0-.3-.2-.6-.3-.9-.1-.3-.3-.6-.4-.9.5,0,.9,0,1.4,0,.4,0,.8,0,1.2,0h.7c.2,0,.3,0,.4,0,0,0,.1-.1.1-.3v-4.5ZM92.7,143.4h1c0-.1,1.3,1.1,1.3,1.1-.6.4-1.3.7-2,1.1-.7.4-1.5.7-2.3,1-.8.3-1.6.6-2.3.8-.1-.2-.3-.4-.5-.6-.2-.2-.4-.4-.5-.6.6-.2,1.3-.4,2-.7.7-.3,1.3-.5,1.9-.8.6-.3,1.1-.6,1.4-.8v-.4ZM79.1,132.7h17.7v2h-17.7v-2ZM77.8,132.7h2.1v6.9c0,1,0,2,0,3.2,0,1.2-.2,2.3-.3,3.5s-.4,2.4-.7,3.5-.7,2.2-1.3,3.1c-.1-.1-.3-.3-.6-.4-.2-.1-.5-.3-.7-.4-.2-.1-.5-.2-.6-.3.5-.9.9-1.9,1.2-2.9.3-1,.5-2.1.6-3.2.2-1.1.2-2.2.3-3.2,0-1.1,0-2,0-2.9v-6.9ZM99.8,133.5h19.5v3.8h-2v-2.1h-15.4v2.1h-2v-3.8ZM108.7,136.7h1.8c0,.7-.1,1.5-.2,2.3,0,.8-.2,1.5-.3,2.1h-1.8c.1-.6.2-1.3.3-2.1,0-.8.2-1.6.2-2.3ZM104.3,145.6v.9h10.6v-.9h-10.6ZM104.3,147.7v.9h10.6v-.9h-10.6ZM104.3,143.6v.9h10.6v-.9h-10.6ZM102.1,142.4h14.9v7.4h-14.9v-7.4ZM110.7,150.8l1.2-1.2c.9.2,1.8.5,2.7.7.9.2,1.8.5,2.6.7.8.2,1.5.5,2.1.7l-1.5,1.4c-.6-.2-1.2-.5-2-.7-.8-.2-1.6-.5-2.4-.8-.9-.3-1.7-.5-2.6-.8ZM105,137.4l-.4,3h9.3l.2-3h-9.2ZM103.2,136.2h13.1l-.5,5.4h-13.3l.7-5.4ZM106.6,149.5l1.7,1.2c-.6.3-1.4.7-2.3.9-.9.3-1.8.6-2.7.8-.9.2-1.8.4-2.7.6-.1-.2-.3-.5-.6-.8-.2-.3-.4-.5-.6-.7.9-.1,1.7-.3,2.6-.5.9-.2,1.8-.4,2.6-.7.8-.3,1.5-.5,2-.8ZM99.1,138.1h5.1v.2h10.6v-.2h5.3v1.6h-5.3v-.2h-10.6v.2h-5.1v-1.6ZM107.6,132l1.9-.6c.3.4.5.8.8,1.3.3.5.5.9.6,1.3l-2,.6c0-.4-.3-.8-.5-1.3-.2-.5-.5-1-.8-1.4ZM122.4,138h20.3v2.3h-20.3v-2.3ZM133.8,138.9c.5,1.8,1.1,3.5,2,5.1.8,1.6,1.9,2.9,3.1,4.1,1.2,1.2,2.6,2.1,4.3,2.8-.2.2-.4.4-.6.6-.2.2-.4.5-.6.7-.2.3-.3.5-.5.7-1.7-.8-3.2-1.8-4.5-3.2-1.3-1.3-2.3-2.8-3.2-4.6-.9-1.7-1.6-3.6-2.2-5.7l2.2-.5ZM131.3,131.6h2.4c0,1.1,0,2.3,0,3.5,0,1.2-.2,2.5-.3,3.8-.2,1.3-.5,2.6-.9,4s-1,2.6-1.7,3.8c-.7,1.2-1.7,2.4-2.8,3.4-1.2,1-2.6,2-4.2,2.7-.2-.3-.4-.6-.7-1-.3-.3-.6-.6-.9-.9,1.6-.7,2.9-1.6,4-2.5,1.1-1,2-2,2.7-3.1.7-1.1,1.2-2.3,1.6-3.5.4-1.2.6-2.4.8-3.6s.2-2.4.3-3.5c0-1.1,0-2.2,0-3.2ZM152.1,142.6h13.3v1.9h-13.3v-1.9ZM163,136.7l1.6,1.6c-1.2.2-2.5.5-4,.6-1.5.2-3,.3-4.5.4-1.5,0-3,.2-4.5.2,0-.2-.1-.5-.2-.9-.1-.3-.2-.6-.3-.9,1,0,2.1,0,3.2-.1,1.1,0,2.2-.2,3.2-.3,1.1-.1,2.1-.2,3-.3.9-.1,1.7-.3,2.4-.4ZM157.6,138.2h2.1c0,1.7.2,3.3.4,4.8.2,1.5.6,2.8.9,4,.4,1.1.8,2,1.2,2.7.5.6.9,1,1.4,1s.4-.3.5-.8c.1-.5.2-1.3.2-2.4.2.2.5.4.8.6.3.2.6.3.9.4,0,1.1-.2,2-.4,2.6-.2.6-.5,1-.8,1.2-.4.2-.8.4-1.4.4s-1.3-.3-1.9-.8c-.6-.5-1.1-1.2-1.6-2.1-.5-.9-.9-2-1.2-3.2-.3-1.2-.6-2.5-.8-4-.2-1.4-.3-2.9-.4-4.5ZM147.7,133.8h18.2v2h-18.2v-2ZM146.7,133.8h2.1v6.6c0,.9,0,1.9,0,3,0,1.1-.2,2.2-.3,3.4-.2,1.1-.4,2.2-.7,3.3-.3,1.1-.7,2.1-1.2,2.9-.1-.1-.3-.3-.5-.5-.2-.2-.5-.3-.7-.5-.2-.1-.4-.2-.6-.3.5-.8.9-1.7,1.1-2.7s.5-2,.6-3c.1-1,.2-2,.3-3,0-1,0-1.9,0-2.7v-6.6ZM154.7,132l2.2-.5c.3.4.6,1,.8,1.5.3.6.4,1,.6,1.4l-2.3.6c0-.4-.3-.9-.5-1.5-.2-.6-.5-1.1-.8-1.6ZM154.1,150.5h6v1.7h-6v-1.7ZM151.1,150.6l-.2-1.7.9-.7,5.5-1.2c0,.3,0,.6,0,1,0,.4,0,.6,0,.9-1.2.3-2.2.6-3,.8-.8.2-1.4.4-1.8.5-.4.1-.7.2-.9.3-.2,0-.4.2-.5.2ZM151.1,150.6c0-.2,0-.4-.2-.6,0-.2-.2-.5-.3-.7-.1-.2-.2-.4-.3-.6.2,0,.4-.2.5-.5.2-.2.3-.5.3-1v-9.5l2,.5v10.5s0,0-.3.2-.4.2-.7.4c-.3.2-.5.4-.7.6-.2.2-.3.4-.3.6Z"/>
</svg>