<?xml version="1.0" encoding="UTF-8"?>
<svg id="_圖層_1" data-name="圖層_1" xmlns="http://www.w3.org/2000/svg" version="1.1" xmlns:xlink="http://www.w3.org/1999/xlink" viewBox="0 0 241 241">
  <!-- Generator: Adobe Illustrator 29.3.1, SVG Export Plug-In . SVG Version: 2.1.0 Build 151)  -->
  <defs>
    <style>
      .st0 {
        fill: url(#_未命名漸層_3);
        fill-opacity: .6;
        isolation: isolate;
        opacity: .8;
      }

      .st1 {
        fill: #fff;
      }
    </style>
    <radialGradient id="_未命名漸層_3" data-name="未命名漸層 3" cx="-837" cy="660" fx="-837" fy="660" r="1" gradientTransform="translate(353846.7 279005.7) scale(422.7 -422.7)" gradientUnits="userSpaceOnUse">
      <stop offset="0" stop-color="#a27057"/>
      <stop offset=".1" stop-color="#bf9261"/>
      <stop offset=".2" stop-color="#d6a569"/>
      <stop offset=".3" stop-color="#ffc677"/>
      <stop offset=".8" stop-color="#aa815d"/>
      <stop offset="1" stop-color="#daab6b"/>
    </radialGradient>
  </defs>
  <path class="st0" d="M120.5,209.3c49,0,88.8-39.8,88.8-88.8S169.5,31.7,120.5,31.7,31.7,71.5,31.7,120.5s39.8,88.8,88.8,88.8Z"/>
  <path class="st1" d="M100.9,108.3c-1.2,0-2.3-.2-3.3-.7-1-.4-1.9-1.1-2.7-1.8l1.6-1.8c.6.6,1.3,1.1,2.1,1.4.8.4,1.6.6,2.4.6s1.8-.2,2.3-.7c.6-.4.8-1,.8-1.7s-.1-.9-.3-1.2c-.2-.3-.6-.6-1-.8-.4-.2-.9-.4-1.4-.7l-2.3-1c-.6-.2-1.1-.5-1.6-.9-.5-.4-1-.9-1.3-1.4-.3-.6-.5-1.3-.5-2.1s.2-1.7.7-2.4c.5-.7,1.1-1.3,2-1.7.8-.4,1.8-.6,2.9-.6s1.9.2,2.8.6c.9.4,1.6.9,2.3,1.6l-1.4,1.7c-.5-.5-1.1-.8-1.7-1.1-.6-.3-1.3-.4-2-.4s-1.6.2-2.1.6c-.5.4-.8.9-.8,1.6s.1.9.4,1.2c.3.3.6.6,1,.8.4.2.9.4,1.3.6l2.3,1c.7.3,1.3.6,1.8,1,.5.4.9.9,1.2,1.4.3.6.4,1.3.4,2.1s-.2,1.7-.7,2.5c-.5.7-1.2,1.3-2,1.8-.9.4-2,.7-3.2.7ZM107.9,108l5.6-17h3.1l5.6,17h-2.8l-2.7-9.2c-.3-.9-.5-1.8-.8-2.8-.3-1-.5-1.9-.8-2.9h0c-.2,1-.5,1.9-.8,2.9-.3.9-.5,1.9-.8,2.8l-2.7,9.2h-2.7ZM111,103.2v-2.1h7.9v2.1h-7.9ZM129.2,97.8l1.5-.5c.3.5.5,1,.7,1.6.2.6.4,1.1.6,1.7.2.5.3,1,.4,1.4l-1.6.6c0-.4-.2-.9-.3-1.4-.2-.6-.3-1.1-.6-1.7-.2-.6-.4-1.1-.7-1.6ZM126.8,103.8l1.5-.3c.1.7.3,1.5.4,2.4.1.9.2,1.6.2,2.2l-1.6.4c0-.6,0-1.4-.2-2.3,0-.9-.2-1.7-.3-2.4ZM124.2,103.6l1.7.3c-.1,1-.3,2-.5,3-.2,1-.4,1.9-.6,2.6-.2,0-.5-.2-.8-.3-.3-.1-.6-.2-.9-.3.3-.7.5-1.5.6-2.5.2-1,.3-1.9.4-2.8ZM123.9,97.4c0-.2,0-.3-.2-.6,0-.2-.2-.5-.3-.7,0-.3-.2-.5-.3-.7.2,0,.4-.2.6-.4.2-.2.4-.5.7-.9.1-.2.3-.4.5-.8.2-.4.5-.8.8-1.4.3-.5.6-1.1.9-1.7.3-.6.5-1.2.8-1.8l2,.8c-.4.8-.8,1.7-1.3,2.5-.5.8-.9,1.6-1.4,2.4s-1,1.5-1.5,2.1h0s0,0-.2.1c-.1,0-.3.2-.4.3-.2.1-.3.2-.5.3-.1.1-.2.2-.2.3ZM123.9,97.4v-1.5s.9-.6.9-.6l4-.3c0,.3,0,.6-.1.9,0,.3,0,.6,0,.9-.9,0-1.6.2-2.2.3-.6,0-1,.1-1.4.2-.3,0-.6,0-.7.1-.2,0-.3,0-.4.1ZM124,102.6c0-.1,0-.3-.2-.6,0-.2-.2-.5-.3-.8,0-.3-.2-.5-.3-.7.3,0,.6-.2.8-.5.3-.3.6-.6,1-1.1.2-.2.5-.6.9-1,.4-.5.8-1.1,1.2-1.7.5-.7.9-1.4,1.4-2.2.5-.8.9-1.5,1.2-2.3l1.8,1.1c-.6,1-1.2,2.1-1.9,3.1-.7,1-1.4,2-2.2,2.9-.8.9-1.5,1.8-2.3,2.5h0s0,0-.2.2c-.1,0-.3.1-.5.3-.2.1-.3.2-.5.3-.1.1-.2.2-.2.3ZM124,102.6v-1.6c0,0,.9-.6.9-.6l6.1-.9c0,.3,0,.6,0,.9,0,.3,0,.6,0,.8-1.4.2-2.5.4-3.4.6-.8.1-1.5.3-2,.4-.5,0-.8.2-1,.3-.2,0-.4.1-.5.2ZM129.2,103.3l1.5-.5c.2.6.5,1.2.7,1.9.2.7.4,1.3.5,1.8l-1.6.6c0-.5-.2-1.1-.4-1.8-.2-.7-.4-1.4-.6-2ZM132,89.6h8.3v2h-8.3v-2ZM139.8,89.6h.6c0,0,1.5.1,1.5.1,0,.7-.2,1.5-.3,2.3-.1.8-.3,1.7-.4,2.5-.1.8-.3,1.6-.4,2.3l-2-.2c.2-.7.3-1.5.4-2.4.2-.9.3-1.7.4-2.5s.2-1.4.3-2v-.3ZM135,96.2h7.3v1.9h-7.6l.3-1.9ZM141.7,96.2h.8c0,0,1.4.4,1.4.4-.4,2.2-1,4.2-1.7,5.9-.8,1.7-1.7,3.2-2.8,4.4-1.1,1.2-2.3,2.3-3.7,3.1-.2-.3-.4-.6-.6-.9-.3-.3-.5-.6-.8-.8,1.2-.7,2.3-1.6,3.3-2.7,1-1.1,1.9-2.5,2.6-4,.7-1.5,1.2-3.2,1.6-5v-.4ZM134.1,90.4h2.1c0,2.1-.1,4.1-.2,6,0,1.9-.3,3.6-.5,5.2-.2,1.6-.6,3.1-1.1,4.5-.5,1.3-1.1,2.6-1.8,3.7-.1-.1-.3-.3-.5-.5-.2-.2-.5-.3-.7-.5-.2-.2-.5-.3-.6-.4,1-1.3,1.7-2.8,2.2-4.6.5-1.8.8-3.8.9-6.1.2-2.3.2-4.7.2-7.3ZM137,97.4c.4,1.6.9,3.1,1.5,4.5.7,1.4,1.5,2.6,2.4,3.7,1,1,2.1,1.8,3.4,2.4-.2.1-.3.3-.5.5-.2.2-.4.4-.5.7-.2.2-.3.4-.4.6-1.4-.7-2.5-1.6-3.5-2.8-1-1.2-1.8-2.5-2.5-4.1-.7-1.5-1.2-3.2-1.7-5.1l1.8-.4ZM79.9,131.7h1.3v8.2h-1.3v-8.2ZM77.6,134h1.2v6.7h-1.2v-6.7ZM82.4,134h1.2v6.7h-1.2v-6.7ZM82,126.8l1.6.4c-.1.5-.3,1.1-.5,1.6-.2.6-.3,1.1-.5,1.6-.2.5-.3,1-.4,1.4l-1.3-.4c.1-.4.3-.9.4-1.4.1-.5.3-1.1.4-1.6.1-.6.2-1.1.3-1.5ZM77.5,127.2l1.3-.3c.3.6.5,1.2.7,1.8.2.6.3,1.2.4,1.6l-1.3.4c0-.5-.2-1-.4-1.7-.2-.7-.4-1.3-.7-1.8ZM74.6,124.5h11v1.9h-9.2v18.5h-1.8v-20.4ZM84.7,124.5h1.8v18.1c0,.6,0,1-.2,1.3-.1.3-.4.6-.7.7-.3.2-.8.3-1.4.3-.6,0-1.3,0-2.2,0,0-.2-.1-.6-.2-.9-.1-.4-.3-.7-.4-1,.6,0,1.2,0,1.7,0h1.1c.2,0,.3,0,.3-.1,0,0,.1-.2.1-.4v-18.1ZM77.1,131h6.9v1.6h-6.9v-1.6ZM78.1,139h4.8v1.7h-4.8v-1.7ZM67.2,129.3h5.9v1.8h-5.9v-1.8ZM66.2,133.2h7.6v1.8h-7.6v-1.8ZM66.4,136.5l1.4-.3c.2.7.4,1.4.6,2.2.2.8.3,1.5.3,2l-1.4.4c0-.6,0-1.3-.3-2-.2-.8-.3-1.5-.5-2.2ZM66,142.4c1-.2,2.3-.4,3.7-.6,1.4-.3,2.9-.6,4.4-.8v1.8c-1.2.3-2.6.6-3.9.9-1.3.3-2.6.5-3.7.8l-.5-2ZM72.1,136l1.5.4c-.2.7-.3,1.4-.5,2.1-.2.7-.3,1.4-.5,1.9l-1.3-.4c0-.4.2-.8.3-1.2.1-.5.2-1,.3-1.4,0-.5.2-.9.2-1.3ZM69.1,130.1h1.8v12.1l-1.8.3v-12.4ZM69.6,123.5l1.5.7c-.4.8-.8,1.6-1.3,2.4-.5.8-1.1,1.5-1.7,2.2-.6.7-1.2,1.3-1.8,1.8,0-.2-.1-.4-.2-.6,0-.3-.2-.5-.3-.8-.1-.3-.2-.5-.3-.6.8-.6,1.6-1.3,2.3-2.2.8-.9,1.4-1.9,1.8-2.9ZM68.8,126l.9-1.5c.6.3,1.2.7,1.8,1.2.6.4,1.2.9,1.7,1.3.5.4,1,.8,1.3,1.2l-1,1.7c-.4-.4-.8-.9-1.3-1.3-.5-.5-1.1-.9-1.6-1.3-.6-.4-1.2-.9-1.8-1.2ZM91.9,130.6h5.6v1.8h-5.6v-1.8ZM99.2,132.3h9v2h-9v-2ZM96.4,130.6h2.1v12c0,.5,0,.9-.2,1.2-.1.3-.4.5-.7.7-.3.2-.8.3-1.3.3-.5,0-1.1,0-1.9,0,0-.3-.1-.6-.2-1-.1-.4-.2-.7-.4-1,.5,0,.9,0,1.3,0,.4,0,.7,0,.8,0,.2,0,.4-.1.4-.4v-11.9ZM107.3,132.3h2.1v.6c0,.1,0,.3,0,.3,0,1.8,0,3.3-.2,4.6,0,1.3-.1,2.3-.2,3.1,0,.8-.2,1.5-.3,1.9-.1.5-.2.8-.4,1-.2.3-.4.5-.7.6-.2.1-.5.2-.9.3-.3,0-.7,0-1.2,0-.5,0-1,0-1.5,0,0-.3,0-.7-.2-1.1-.1-.4-.2-.7-.4-1,.5,0,.9,0,1.3,0h.9c.2,0,.3,0,.4,0,.1,0,.2-.1.3-.3.1-.2.3-.6.4-1.3s.2-1.7.3-3.1c0-1.4.1-3.2.2-5.5v-.4ZM90.9,130.6h2v5c0,.7,0,1.5,0,2.3,0,.8-.2,1.7-.3,2.5-.2.8-.4,1.6-.7,2.4-.3.8-.7,1.5-1.2,2.1-.1-.1-.3-.3-.5-.4-.2-.1-.4-.3-.7-.4-.2-.1-.4-.2-.6-.3.6-.8,1-1.7,1.3-2.6.3-1,.5-1.9.6-2.9,0-1,.1-1.9.1-2.7v-5ZM92,125.4h7.2v1.8h-7.2v-1.8ZM101.6,125.4h8.4v1.8h-8.4v-1.8ZM92.3,123.5l2.1.5c-.3.8-.7,1.6-1.1,2.4-.4.8-.9,1.5-1.3,2.2-.5.7-1,1.3-1.4,1.8-.1-.1-.3-.2-.6-.4-.2-.2-.4-.3-.7-.4-.2-.1-.4-.3-.6-.3.8-.7,1.4-1.6,2.1-2.6.6-1,1.2-2.1,1.6-3.2ZM102,123.4l2.1.5c-.5,1.2-1.1,2.4-1.8,3.5-.7,1.1-1.5,2-2.3,2.8-.1-.1-.3-.3-.6-.4-.2-.2-.4-.3-.7-.5-.2-.2-.4-.3-.6-.4.8-.7,1.6-1.5,2.2-2.5.7-1,1.2-2,1.6-3.1ZM93.9,128l1.8-.6c.3.3.5.7.8,1.2.3.4.5.8.6,1.2l-1.9.7c-.1-.3-.3-.7-.5-1.1-.2-.5-.5-.9-.7-1.3ZM104.4,127.9l1.8-.6c.3.4.6.8,1,1.3.3.5.6.9.7,1.3l-1.9.7c-.1-.4-.4-.8-.7-1.3-.3-.5-.6-1-.9-1.4ZM102.1,129.9h2v4.2c0,.9,0,1.8-.2,2.7,0,.9-.3,1.9-.6,2.8-.3.9-.7,1.9-1.3,2.8-.6.9-1.3,1.7-2.3,2.5-.2-.2-.4-.5-.7-.7-.3-.2-.6-.5-.8-.6.9-.7,1.5-1.5,2-2.3.5-.8.9-1.6,1.1-2.5.3-.8.4-1.7.5-2.5,0-.8.1-1.6.1-2.3v-4.2ZM92.4,138.9c.6-.2,1.3-.4,2.1-.7.8-.3,1.6-.6,2.5-.9l.3,1.4c-.7.4-1.4.7-2.1,1.1-.7.4-1.3.7-2,1l-.8-1.9ZM92.9,134.7l1.2-1.1c.5.3.9.7,1.4,1,.5.4.8.7,1.1,1l-1.2,1.3c-.3-.3-.7-.7-1.1-1.1-.5-.4-.9-.8-1.3-1.1ZM119.5,124.7h13.3v1.5h-13.3v-1.5ZM120.4,127.2h11.5v1.4h-11.5v-1.4ZM125.2,123.6h2.1v4.4h-2.1v-4.4ZM121.4,130.8v1.7h9.4v-1.7h-9.4ZM119.6,129.4h13.1v4.5h-13.1v-4.5ZM122.3,137.7v.9h7.6v-.9h-7.6ZM122.3,139.5v.9h7.6v-.9h-7.6ZM122.3,135.9v.9h7.6v-.9h-7.6ZM120.4,134.7h11.5v6.9h-11.5v-6.9ZM127.3,142.8l.8-1.4c.9.3,1.8.6,2.7,1,.9.4,1.7.7,2.3,1l-.9,1.5c-.6-.3-1.4-.7-2.3-1.1-.9-.4-1.8-.7-2.7-1.1ZM124.1,141.4l1.4,1.4c-.9.4-1.9.8-2.9,1.2-1,.4-1.9.8-2.8,1.1,0-.2-.2-.5-.4-.8s-.3-.5-.5-.8c.5-.2,1.1-.4,1.7-.6.6-.2,1.2-.5,1.8-.8.6-.3,1.1-.5,1.5-.7ZM123.6,129.9h1.6v3.5h-1.6v-3.5ZM127.2,129.9h1.7v3.4h-1.7v-3.4ZM117,132.9l1.5-.4c.2.5.4,1.1.5,1.7.2.6.3,1.2.5,1.7s.2,1,.3,1.4l-1.6.5c0-.4-.2-.9-.3-1.5-.1-.6-.2-1.2-.4-1.8-.2-.6-.3-1.2-.5-1.7ZM115.1,138.7l1.5-.3c.1.8.3,1.8.4,2.8.1,1,.2,1.8.2,2.6l-1.6.3c0-.5,0-1,0-1.7,0-.6-.1-1.2-.2-1.9,0-.6-.2-1.2-.2-1.8ZM112.8,138.6l1.7.3c-.1,1.1-.3,2.1-.5,3.2-.2,1.1-.4,2-.7,2.7-.2,0-.5-.2-.8-.3-.3-.1-.6-.2-.9-.3.3-.7.5-1.6.7-2.6.2-1,.3-2,.4-3ZM112.4,132.4c0-.1,0-.3-.2-.5,0-.2-.2-.5-.2-.7,0-.2-.2-.4-.2-.6.2,0,.4-.2.6-.4.2-.2.4-.5.6-.9.2-.2.4-.6.7-1.2.3-.6.7-1.3,1-2.1.4-.8.7-1.6,1-2.5l1.8.7c-.4.9-.7,1.7-1.2,2.6-.4.8-.9,1.7-1.3,2.4-.5.8-.9,1.5-1.4,2.1h0s0,0-.2.1c-.1,0-.2.1-.4.3s-.3.2-.4.3-.2.2-.2.3ZM112.4,132.4v-1.5s.9-.6.9-.6l3.9-.3c0,.3,0,.6-.1.9,0,.3,0,.6,0,.8-1.2.1-2.1.2-2.7.3-.6,0-1.1.1-1.3.2-.3,0-.5.1-.6.2ZM112.5,137.7c0-.1,0-.3-.2-.5,0-.2-.2-.5-.2-.7,0-.2-.2-.4-.2-.6.2,0,.5-.2.8-.5s.6-.6.9-1.1c.2-.2.4-.6.8-1.1.3-.5.7-1.1,1.1-1.7.4-.7.8-1.4,1.2-2.2.4-.8.8-1.6,1.2-2.3l1.7,1c-.5,1.1-1.1,2.1-1.7,3.2-.6,1-1.3,2-2,3-.7.9-1.4,1.8-2.1,2.6h0c0,0,0,.1-.2.2-.1,0-.2.1-.4.3-.2,0-.3.2-.4.3-.1.1-.2.2-.2.3ZM112.5,137.7v-1.6c0,0,.9-.6.9-.6l5.4-.7c0,.2,0,.5-.1.9,0,.3,0,.6,0,.8-1.2.2-2.2.3-3,.5-.7.1-1.3.2-1.7.3-.4,0-.7.1-.9.2-.2,0-.4.1-.5.2ZM117.2,138.3l1.4-.4c.2.7.5,1.4.7,2.2.2.8.4,1.5.5,2l-1.4.5c0-.6-.3-1.3-.5-2.1-.2-.8-.4-1.5-.7-2.2ZM134.6,135.6c.9-.2,2-.5,3.2-.9,1.3-.4,2.6-.8,3.9-1.2l.3,2c-1.2.4-2.4.8-3.6,1.1-1.2.4-2.3.7-3.3,1l-.5-2.1ZM134.9,128.1h7.1v2h-7.1v-2ZM137.6,123.6h2v18.8c0,.6,0,1-.2,1.3-.1.3-.3.5-.6.7-.3.2-.7.3-1.2.3-.5,0-1.1,0-1.8,0,0-.3,0-.6-.2-1-.1-.4-.2-.7-.4-1,.5,0,.9,0,1.2,0h.8c.3,0,.4-.1.4-.4v-18.8ZM143,125.8h12.5v1.9h-12.5v-1.9ZM142.4,131.2h13.5v1.9h-13.5v-1.9ZM144.6,128.4l1.8-.7c.3.4.6.9.9,1.4.3.5.5,1,.7,1.3l-1.9.8c-.1-.4-.3-.8-.6-1.4-.3-.5-.6-1-.9-1.4ZM151.7,127.8l2,.6c-.3.6-.7,1.3-1,1.9-.3.6-.7,1.1-1,1.6l-1.7-.6c.2-.3.4-.7.6-1.1s.4-.8.6-1.3c.2-.4.4-.8.5-1.2ZM142.2,135.4h14.1v1.9h-14.1v-1.9ZM152.4,134l2.1.3c-.3,1.6-.7,3-1.2,4.2-.6,1.2-1.3,2.2-2.2,3-.9.8-2,1.5-3.3,2-1.3.5-2.9,1-4.8,1.3,0-.3-.2-.6-.4-1-.2-.3-.4-.6-.6-.9,1.7-.2,3.2-.6,4.4-1,1.2-.4,2.2-1,3-1.7.8-.7,1.5-1.6,1.9-2.6.5-1,.9-2.3,1.1-3.7ZM147.5,123.9l2.4-.4c.3.4.6.9.8,1.5.2.6.4,1,.6,1.4l-2.5.5c0-.4-.3-.9-.5-1.5-.2-.6-.5-1.1-.7-1.6ZM143.3,139.8c.5-.6.9-1.2,1.4-2,.5-.8,1-1.5,1.4-2.3.5-.8.8-1.6,1.1-2.3l2,.4c-.3.8-.7,1.5-1.2,2.3-.4.8-.9,1.6-1.4,2.3-.5.7-.9,1.3-1.3,1.9l-2.2-.3ZM143.3,139.8l1.3-1.4c.9.3,1.9.6,2.9,1,1,.4,2,.8,3.1,1.2,1,.4,2,.9,2.9,1.3.9.4,1.7.9,2.3,1.3l-1.5,1.6c-.6-.4-1.3-.8-2.2-1.3-.9-.4-1.8-.9-2.8-1.3-1-.5-2-.9-3.1-1.3-1-.4-2-.8-2.9-1.1ZM161.7,126.3v3h3.6v-3h-3.6ZM159.8,124.6h7.5v6.5h-7.5v-6.5ZM171.6,126.3v3h3.7v-3h-3.7ZM169.7,124.6h7.6v6.5h-7.6v-6.5ZM158.1,133.1h20.8v1.8h-20.8v-1.8ZM161.3,142.4h5.4v1.8h-5.4v-1.8ZM170.4,142.4h5.6v1.8h-5.6v-1.8ZM160.3,137.6h7.3v7.2h-2v-5.4h-3.4v5.5h-1.9v-7.3ZM169.4,137.6h7.4v7.2h-2v-5.4h-3.5v5.5h-1.9v-7.3ZM166.7,130.6l2.1.4c-.6,1.2-1.3,2.3-2.2,3.4-.9,1.1-2,2.1-3.3,3-1.3.9-2.8,1.7-4.6,2.4,0-.2-.2-.4-.3-.6-.1-.2-.3-.4-.4-.6-.2-.2-.3-.4-.4-.5,1.6-.6,3-1.3,4.3-2.1,1.2-.8,2.2-1.7,3-2.6.8-.9,1.4-1.9,1.8-2.8ZM171.1,131.8l1.1-1.1c.6.2,1.2.5,1.8.8.6.3,1.2.6,1.5.9l-1.1,1.2c-.4-.3-.8-.6-1.5-1-.6-.3-1.2-.6-1.8-.8ZM169.7,134.6l1.1-1.2c1.1.4,2.2,1,3.2,1.5,1.1.6,2,1.1,2.9,1.7.9.6,1.7,1.2,2.3,1.7l-1.5,1.3c-.6-.6-1.3-1.1-2.1-1.7-.8-.6-1.8-1.2-2.8-1.8-1-.6-2-1.1-3.1-1.6Z"/>
</svg>