
<svg xmlns="http://www.w3.org/2000/svg" viewBox="0 0 315 47" fill="#fff" xmlns:xlink="http://www.w3.org/1999/xlink"  >
  <defs>
  <path id="finger" d="M163.2,12.2c-.3,0-.6,0-.8.2,0-1.2-1.1-2.2-2.3-2.2s-.8.1-1.2.3c-.4-.8-1.2-1.4-2.2-1.4s-.5,0-.8.1c.9-.8,1.5-1.9,1.5-3.3,0-2.3-1.9-4.3-4.3-4.3s-4.3,1.9-4.3,4.3.7,2.7,1.8,3.5v4.5c-1.8.3-3.2,1.9-3.2,3.8v2.3c0,4.6,3.7,8.4,8.4,8.4h1.1c4.6,0,8.4-3.7,8.4-8.4v-5.6c0-1.2-1-2.2-2.2-2.2ZM164,20.1c0,3.8-3.1,7-7,7h-1.1c-3.8,0-7-3.1-7-7v-2.3c0-1.1.7-2.1,1.8-2.4v1.8c0,.4.3.7.7.7s.7-.3.7-.7V7.7c0-.6.5-1,1-1s1,.5,1,1v6.1c0,.4.3.7.7.7s.7-.3.7-.7v-2.3c0-.6.5-1,1-1s1,.5,1,1v2.3c0,.4.3.7.7.7s.7-.3.7-.7v-1.3c0-.5.4-.9.9-.9s.9.4.9.9v2.1c0,.4.3.7.7.7s.7-.3.7-.7h0c0-.6.4-1,.8-1s.8.4.8.8v5.6Z"/>
  </defs>
  <line fill="none" stroke="#fff9" y1="6" x2="315" y2="6"/>
  <use xlink:href="#finger">
  <animate attributeName="x" values="-15;15;-15" dur="4s" repeatCount="indefinite"/>
  </use>
     <path d="M110.7,32.3h12.2v1.3h-12.2v-1.3ZM112.1,35.4h1.2v6.2h-1.2v-6.2ZM112.6,35.4h5.1v5.2h-5.1v-1.2h3.9v-2.7h-3.9v-1.2ZM120,32.7h1.3v9.6c0,.4,0,.7-.2,1-.1.2-.3.4-.6.5-.3.1-.7.2-1.2.2s-1.1,0-1.8,0c0-.1,0-.3-.1-.5,0-.2-.1-.3-.2-.5s-.1-.3-.2-.4c.4,0,.7,0,1,0,.3,0,.6,0,.9,0h.6c.1,0,.2,0,.3,0,0,0,0-.1,0-.3v-9.6ZM128.5,31.4l1.3.2c-.2,1.1-.4,2.1-.7,3.2-.3,1.1-.6,2.1-1,3.2-.4,1-.9,2-1.4,2.9-.6.9-1.2,1.7-2,2.4,0,0-.1-.2-.3-.3-.1-.1-.2-.3-.3-.4-.1-.1-.2-.2-.3-.3.7-.6,1.3-1.4,1.8-2.2.5-.8,1-1.7,1.3-2.7.4-1,.7-1.9.9-3,.2-1,.4-2,.6-3ZM124.5,33.8h11.8v1.2h-11.8v-1.2ZM126.8,42.4h9.7v1.2h-9.7v-1.2ZM128.3,37.4h7.7v1.2h-7.7v-1.2ZM131.2,38h1.3v5.1h-1.3v-5.1ZM142.6,31.4l1.3.2c-.2.9-.5,1.9-.8,2.8-.3.9-.7,1.8-1.1,2.6-.4.9-1,1.6-1.5,2.4-.6.7-1.3,1.4-2.1,1.9,0,0-.1-.2-.2-.3-.1-.1-.2-.3-.3-.4-.1-.1-.2-.2-.3-.3.7-.5,1.4-1.1,1.9-1.8.6-.7,1-1.4,1.4-2.2.4-.8.7-1.6,1-2.4.3-.8.5-1.7.7-2.5ZM138,33.8h11.9v1.2h-11.9v-1.2ZM140.7,37.5h8.3v6.4h-1.4v-5.2h-5.6v5.2h-1.3v-6.5ZM141.5,42h6.6v1.2h-6.6v-1.2ZM151.3,36.2l.7-.9c.3.1.5.3.8.4.3.2.6.3.8.5s.5.3.7.5l-.8,1c-.2-.1-.4-.3-.7-.5-.3-.2-.5-.4-.8-.5-.3-.2-.6-.3-.8-.5ZM151.7,42.9c.2-.3.4-.7.7-1.2s.5-1,.7-1.5c.2-.5.5-1,.7-1.5l1,.8c-.2.5-.4.9-.6,1.4-.2.5-.4,1-.7,1.5-.2.5-.4.9-.7,1.3l-1.2-.8ZM152,32.4l.8-.8c.3.1.5.3.9.5.3.2.6.4.9.6s.5.4.7.5l-.8,1c-.2-.2-.4-.3-.7-.6-.3-.2-.6-.4-.9-.6-.3-.2-.6-.4-.9-.6ZM154.7,35.5h9v2.4h-1.2v-1.4h-6.6v1.4h-1.2v-2.4ZM156,37.4h1.2v2c0,.5,0,1,0,1.6,0,.6-.2,1.1-.3,1.7-.2.6-.4,1.1-.8,1.5,0,0-.2-.2-.3-.2-.1,0-.3-.2-.4-.3-.1,0-.2-.1-.3-.2.3-.4.6-.9.7-1.3.1-.5.2-1,.3-1.4,0-.5,0-.9,0-1.3v-1.9ZM156,31.9h6.2v4.2h-1.2v-3.2h-3.9v3.2h-1.2v-4.2ZM156.6,37.4h5v1h-5v-1ZM157,41.2c.6,0,1.3-.2,2-.4.8-.2,1.6-.3,2.4-.5v.9c-.6.2-1.3.3-2.1.5-.7.2-1.4.3-2,.5l-.4-1ZM157.4,39.7l.4-.8c.3,0,.7,0,1.1.2s.7.2,1.1.2c.3,0,.6.2.8.3l-.4.9c-.2-.1-.5-.2-.8-.3-.3,0-.7-.2-1.1-.3-.4,0-.7-.2-1.1-.2ZM158.6,33.7h3.1v.8h-2.1v1.6h-1v-2.4ZM161.1,37.4h1.2v5.4c0,.3,0,.5-.1.7,0,.2-.2.3-.4.4-.2,0-.5.1-.8.2s-.7,0-1.2,0c0-.2,0-.3-.1-.5,0-.2-.1-.4-.2-.5.3,0,.6,0,.9,0,.3,0,.5,0,.5,0,0,0,.2,0,.2,0,0,0,0,0,0-.2v-5.4ZM164.8,42.4c.6,0,1.2-.1,1.9-.2.7,0,1.5-.1,2.3-.2.8,0,1.6-.2,2.4-.2v1c-.8,0-1.5.2-2.3.3-.8,0-1.5.2-2.2.2-.7,0-1.4.1-1.9.2l-.2-1.1ZM164.8,33.7h6.8v1h-6.8v-1ZM170.8,31.5l.6,1c-.6.1-1.2.2-1.9.3s-1.4.2-2.2.2-1.5,0-2.1.1c0-.1,0-.3-.1-.5,0-.2-.1-.3-.2-.5.5,0,1,0,1.6-.1.5,0,1.1,0,1.6-.1.5,0,1-.1,1.5-.2s.9-.1,1.2-.2ZM165.2,40.2h6.3v1h-6.3v-1ZM165.2,35.4h6.2v4.1h-6.2v-4.1ZM166.3,36.2v.8h4v-.8h-4ZM166.3,37.8v.8h4v-.8h-4ZM167.7,32.6h1.2v9.9h-1.2v-9.9ZM173.1,31.6h1.2c0,1.1,0,2.2,0,3.2,0,1,0,2-.2,2.9,0,.9-.3,1.8-.5,2.5-.2.8-.5,1.5-.9,2.1-.4.6-.9,1.2-1.6,1.7,0,0-.1-.2-.3-.3s-.2-.2-.3-.3c-.1-.1-.2-.2-.3-.3.6-.4,1.1-1,1.5-1.5.4-.6.7-1.2.9-2,.2-.7.3-1.5.4-2.3s.1-1.7.1-2.7c0-1,0-2,0-3ZM171.6,34.5h4.8v1.2h-4.8v-1.2ZM175.9,34.5h1.2c0,.2,0,.3,0,.4,0,0,0,.2,0,.2,0,1.4,0,2.6-.1,3.6s0,1.8-.1,2.4c0,.6-.1,1.1-.2,1.5,0,.3-.2.6-.3.7-.1.2-.3.3-.4.4s-.3.1-.6.2c-.2,0-.4,0-.7,0s-.6,0-.9,0c0-.2,0-.4-.1-.6,0-.2-.2-.4-.3-.6.3,0,.6,0,.9,0,.3,0,.5,0,.6,0s.2,0,.3,0c0,0,.1,0,.2-.2,0,0,.2-.3.2-.6,0-.3.1-.8.2-1.4,0-.6,0-1.4.1-2.3s0-2.1.1-3.4v-.3ZM180,36.6l.9.3c-.2.4-.4.8-.6,1.3-.2.4-.5.8-.7,1.2-.3.4-.5.7-.8,1,0,0,0-.2-.2-.3,0-.1-.1-.2-.2-.3,0-.1-.1-.2-.2-.3.4-.4.7-.8,1-1.3.3-.5.6-1,.8-1.6ZM178.4,32.2h2.3v.9h-2.3v-.9ZM178.9,34.1h2.6v2.5h-2.6v-2.5ZM180.4,37.6h4.3v.9h-4.3v5.4h-1v-5.3l.8-1h.1ZM179.6,34.8v1.1h1v-1.1h-1ZM180,42.4h4.6v.9h-4.6v-.9ZM180.2,31.4h1v2.5h-1v-2.5ZM180.2,39.2h4.2v.8h-4.2v-.8ZM180.2,40.8h4.3v.8h-4.3v-.8ZM181.7,37l.8-.3c.1.2.2.4.4.6.1.2.2.4.2.6l-.8.4c0-.2-.1-.4-.2-.6,0-.2-.2-.4-.3-.6ZM181.9,38.2h1v4.4h-1v-4.4ZM182.1,34.1h2.6v2.5h-2.6v-2.5ZM182.3,31.4h1v2.5h-1v-2.5ZM182.7,32.2h2.3v.9h-2.3v-.9ZM182.8,34.8v1.1h1v-1.1h-1ZM186.3,39.1h1.1c0,.7-.1,1.4-.3,2s-.4,1.2-.7,1.6-.8.9-1.4,1.2c0-.2-.2-.3-.3-.5s-.3-.3-.4-.4c.5-.3,1-.6,1.2-1,.3-.4.5-.8.6-1.3.1-.5.2-1,.2-1.6ZM185.2,31.9h5.1v7.7h-5.1v-7.7ZM186.3,33v1.1h2.9v-1.1h-2.9ZM186.3,35.1v1.1h2.9v-1.1h-2.9ZM186.3,37.3v1.1h2.9v-1.1h-2.9ZM188.1,39.1h1v3.4c0,.1,0,.2,0,.3,0,0,0,0,.2,0h.4c0,0,.1,0,.2-.1,0,0,0-.2,0-.5s0-.7,0-1.2c0,0,.2.2.4.3.2,0,.4.1.5.2,0,.6,0,1.1-.2,1.5,0,.3-.2.6-.3.7-.1.1-.3.2-.6.2h-.7c-.3,0-.5,0-.7-.1-.2,0-.3-.2-.3-.4,0-.2,0-.5,0-.8v-3.4ZM197,32.5l1.3.3c-.3,1.1-.7,2.2-1.2,3.2-.5,1-1.1,2-1.8,2.9-.7.9-1.6,1.6-2.6,2.2,0,0-.1-.2-.2-.3,0-.1-.2-.3-.3-.4s-.2-.2-.3-.3c1-.5,1.8-1.2,2.4-2,.7-.8,1.2-1.7,1.7-2.6.4-1,.8-1.9,1-2.9ZM192.2,35.6h12v1h-12v-1ZM202.6,31.5l.8.9c-.7.1-1.4.2-2.2.3-.8,0-1.7.2-2.6.2s-1.8,0-2.7.1c-.9,0-1.8,0-2.6,0,0-.1,0-.3,0-.5s-.1-.3-.2-.5c.8,0,1.7,0,2.6,0,.9,0,1.8,0,2.6-.1.9,0,1.7-.1,2.4-.2s1.4-.2,2-.3ZM193.2,33.8h10.3v1h-10.3v-1ZM195,37.4h8v6.6h-1.3v-5.6h-5.5v5.6h-1.2v-6.6ZM195.7,42.5h6.5v1h-6.5v-1ZM195.8,39.2h6.4v.8h-6.4v-.8ZM195.8,40.8h6.4v.8h-6.4v-.8Z"/>
</svg>